  0
SECTION
  2
HEADER
  9
$ACADVER
  1
AC1015
  9
$ACADMAINTVER
 70
     6
  9
$DWGCODEPAGE
  3
ANSI_1252
  9
$INSBASE
 10
0.0
 20
0.0
 30
0.0
  9
$EXTMIN
 10
-3.0472623706
 20
-3.0493616849
 30
0.0
  9
$EXTMAX
 10
3.0472623706
 20
3.033136904
 30
0.0
  9
$LIMMIN
 10
0.0
 20
0.0
  9
$LIMMAX
 10
420.0
 20
297.0
  9
$ORTHOMODE
 70
     0
  9
$REGENMODE
 70
     1
  9
$FILLMODE
 70
     1
  9
$QTEXTMODE
 70
     0
  9
$MIRRTEXT
 70
     1
  9
$LTSCALE
 40
1.0
  9
$ATTMODE
 70
     1
  9
$TEXTSIZE
 40
3.5
  9
$TRACEWID
 40
1.0
  9
$TEXTSTYLE
  7
Standard
  9
$CLAYER
  8
0
  9
$CELTYPE
  6
ByLayer
  9
$CECOLOR
 62
   256
  9
$CELTSCALE
 40
1.0
  9
$DISPSILH
 70
     0
  9
$DIMSCALE
 40
1.0
  9
$DIMASZ
 40
3.556
  9
$DIMEXO
 40
0.0
  9
$DIMDLI
 40
3.75
  9
$DIMRND
 40
0.0
  9
$DIMDLE
 40
0.0
  9
$DIMEXE
 40
1.0
  9
$DIMTP
 40
0.0
  9
$DIMTM
 40
0.0
  9
$DIMTXT
 40
3.5
  9
$DIMCEN
 40
2.5
  9
$DIMTSZ
 40
0.0
  9
$DIMTOL
 70
     0
  9
$DIMLIM
 70
     0
  9
$DIMTIH
 70
     1
  9
$DIMTOH
 70
     1
  9
$DIMSE1
 70
     0
  9
$DIMSE2
 70
     0
  9
$DIMTAD
 70
     1
  9
$DIMZIN
 70
     1
  9
$DIMBLK
  1

  9
$DIMASO
 70
     1
  9
$DIMSHO
 70
     1
  9
$DIMPOST
  1

  9
$DIMAPOST
  1

  9
$DIMALT
 70
     0
  9
$DIMALTD
 70
     3
  9
$DIMALTF
 40
0.0393700787
  9
$DIMLFAC
 40
1.0
  9
$DIMTOFL
 70
     1
  9
$DIMTVP
 40
0.0
  9
$DIMTIX
 70
     0
  9
$DIMSOXD
 70
     0
  9
$DIMSAH
 70
     0
  9
$DIMBLK1
  1

  9
$DIMBLK2
  1

  9
$DIMSTYLE
  2
ISO-25
  9
$DIMCLRD
 70
     0
  9
$DIMCLRE
 70
     0
  9
$DIMCLRT
 70
     0
  9
$DIMTFAC
 40
1.0
  9
$DIMGAP
 40
1.524
  9
$DIMJUST
 70
     0
  9
$DIMSD1
 70
     0
  9
$DIMSD2
 70
     0
  9
$DIMTOLJ
 70
     0
  9
$DIMTZIN
 70
     1
  9
$DIMALTZ
 70
     0
  9
$DIMALTTZ
 70
     0
  9
$DIMUPT
 70
     0
  9
$DIMDEC
 70
     2
  9
$DIMTDEC
 70
     2
  9
$DIMALTU
 70
     2
  9
$DIMALTTD
 70
     3
  9
$DIMTXSTY
  7
Standard
  9
$DIMAUNIT
 70
     0
  9
$DIMADEC
 70
     2
  9
$DIMALTRND
 40
0.0
  9
$DIMAZIN
 70
     0
  9
$DIMDSEP
 70
    44
  9
$DIMATFIT
 70
     3
  9
$DIMFRAC
 70
     0
  9
$DIMLDRBLK
  1

  9
$DIMLUNIT
 70
     2
  9
$DIMLWD
 70
    -2
  9
$DIMLWE
 70
    -2
  9
$DIMTMOVE
 70
     0
  9
$LUNITS
 70
     2
  9
$LUPREC
 70
     2
  9
$SKETCHINC
 40
1.0
  9
$FILLETRAD
 40
0.0
  9
$AUNITS
 70
     0
  9
$AUPREC
 70
     2
  9
$MENU
  1
.
  9
$ELEVATION
 40
0.0
  9
$PELEVATION
 40
0.0
  9
$THICKNESS
 40
0.0
  9
$LIMCHECK
 70
     0
  9
$CHAMFERA
 40
0.0
  9
$CHAMFERB
 40
0.0
  9
$CHAMFERC
 40
0.0
  9
$CHAMFERD
 40
0.0
  9
$SKPOLY
 70
     0
  9
$TDCREATE
 40
2460461.846925984
  9
$TDUCREATE
 40
2460462.138592651
  9
$TDUPDATE
 40
2460461.846975278
  9
$TDUUPDATE
 40
2460462.138641945
  9
$TDINDWG
 40
0.0000000116
  9
$TDUSRTIMER
 40
0.0000000116
  9
$USRTIMER
 70
     1
  9
$ANGBASE
 50
0.0
  9
$ANGDIR
 70
     0
  9
$PDMODE
 70
     0
  9
$PDSIZE
 40
-1.0
  9
$PLINEWID
 40
0.0
  9
$SPLFRAME
 70
     0
  9
$SPLINETYPE
 70
     6
  9
$SPLINESEGS
 70
     8
  9
$HANDSEED
  5
B5
  9
$SURFTAB1
 70
     6
  9
$SURFTAB2
 70
     6
  9
$SURFTYPE
 70
     6
  9
$SURFU
 70
     6
  9
$SURFV
 70
     6
  9
$UCSBASE
  2

  9
$UCSNAME
  2

  9
$UCSORG
 10
0.0
 20
0.0
 30
0.0
  9
$UCSXDIR
 10
1.0
 20
0.0
 30
0.0
  9
$UCSYDIR
 10
0.0
 20
1.0
 30
0.0
  9
$UCSORTHOREF
  2

  9
$UCSORTHOVIEW
 70
     0
  9
$UCSORGTOP
 10
0.0
 20
0.0
 30
0.0
  9
$UCSORGBOTTOM
 10
0.0
 20
0.0
 30
0.0
  9
$UCSORGLEFT
 10
0.0
 20
0.0
 30
0.0
  9
$UCSORGRIGHT
 10
0.0
 20
0.0
 30
0.0
  9
$UCSORGFRONT
 10
0.0
 20
0.0
 30
0.0
  9
$UCSORGBACK
 10
0.0
 20
0.0
 30
0.0
  9
$PUCSBASE
  2

  9
$PUCSNAME
  2

  9
$PUCSORG
 10
0.0
 20
0.0
 30
0.0
  9
$PUCSXDIR
 10
1.0
 20
0.0
 30
0.0
  9
$PUCSYDIR
 10
0.0
 20
1.0
 30
0.0
  9
$PUCSORTHOREF
  2

  9
$PUCSORTHOVIEW
 70
     0
  9
$PUCSORGTOP
 10
0.0
 20
0.0
 30
0.0
  9
$PUCSORGBOTTOM
 10
0.0
 20
0.0
 30
0.0
  9
$PUCSORGLEFT
 10
0.0
 20
0.0
 30
0.0
  9
$PUCSORGRIGHT
 10
0.0
 20
0.0
 30
0.0
  9
$PUCSORGFRONT
 10
0.0
 20
0.0
 30
0.0
  9
$PUCSORGBACK
 10
0.0
 20
0.0
 30
0.0
  9
$USERI1
 70
     0
  9
$USERI2
 70
     0
  9
$USERI3
 70
     0
  9
$USERI4
 70
     0
  9
$USERI5
 70
     0
  9
$USERR1
 40
0.0
  9
$USERR2
 40
0.0
  9
$USERR3
 40
0.0
  9
$USERR4
 40
0.0
  9
$USERR5
 40
0.0
  9
$WORLDVIEW
 70
     1
  9
$SHADEDGE
 70
     3
  9
$SHADEDIF
 70
    70
  9
$TILEMODE
 70
     1
  9
$MAXACTVP
 70
    64
  9
$PINSBASE
 10
0.0
 20
0.0
 30
0.0
  9
$PLIMCHECK
 70
     0
  9
$PEXTMIN
 10
1.0000000000E+20
 20
1.0000000000E+20
 30
1.0000000000E+20
  9
$PEXTMAX
 10
-1.0000000000E+20
 20
-1.0000000000E+20
 30
-1.0000000000E+20
  9
$PLIMMIN
 10
0.0
 20
0.0
  9
$PLIMMAX
 10
420.0
 20
297.0
  9
$UNITMODE
 70
     0
  9
$VISRETAIN
 70
     1
  9
$PLINEGEN
 70
     0
  9
$PSLTSCALE
 70
     1
  9
$TREEDEPTH
 70
  3020
  9
$CMLSTYLE
  2
Standard
  9
$CMLJUST
 70
     0
  9
$CMLSCALE
 40
20.0
  9
$PROXYGRAPHICS
 70
     1
  9
$MEASUREMENT
 70
     1
  9
$CELWEIGHT
370
    -1
  9
$ENDCAPS
280
     0
  9
$JOINSTYLE
280
     0
  9
$LWDISPLAY
290
     1
  9
$INSUNITS
 70
     4
  9
$HYPERLINKBASE
  1

  9
$STYLESHEET
  1

  9
$XEDIT
290
     1
  9
$CEPSNTYPE
380
     0
  9
$PSTYLEMODE
290
     1
  9
$FINGERPRINTGUID
  2
{556684f1-8164-40f8-9628-233cf67d64d1}
  9
$VERSIONGUID
  2
{FAEB1C32-E019-11D5-929B-00C0DF256EC4}
  9
$EXTNAMES
290
     1
  9
$PSVPSCALE
 40
0.0
  9
$OLESTARTUP
290
     0
  0
ENDSEC
  0
SECTION
  2
CLASSES
  0
CLASS
  1
ACDBDICTIONARYWDFLT
  2
AcDbDictionaryWithDefault
  3
ObjectDBX Classes
 90
        0
280
     0
281
     0
  0
CLASS
  1
VISUALSTYLE
  2
AcDbVisualStyle
  3
ObjectDBX Classes
 90
     4095
280
     0
281
     0
  0
CLASS
  1
MATERIAL
  2
AcDbMaterial
  3
ObjectDBX Classes
 90
     1153
280
     0
281
     0
  0
CLASS
  1
SCALE
  2
AcDbScale
  3
ObjectDBX Classes
 90
     1153
280
     0
281
     0
  0
CLASS
  1
TABLESTYLE
  2
AcDbTableStyle
  3
ObjectDBX Classes
 90
     4095
280
     0
281
     0
  0
CLASS
  1
MLEADERSTYLE
  2
AcDbMLeaderStyle
  3
ACDB_MLEADERSTYLE_CLASS
 90
     4095
280
     0
281
     0
  0
CLASS
  1
SUN
  2
AcDbSun
  3
SCENEOE
 90
     1153
280
     0
281
     0
  0
CLASS
  1
ACDBPLACEHOLDER
  2
AcDbPlaceHolder
  3
ObjectDBX Classes
 90
        0
280
     0
281
     0
  0
CLASS
  1
LAYOUT
  2
AcDbLayout
  3
ObjectDBX Classes
 90
        0
280
     0
281
     0
  0
ENDSEC
  0
SECTION
  2
TABLES
  0
TABLE
  2
VPORT
  5
8
330
0
100
AcDbSymbolTable
 70
     1
  0
VPORT
  5
29
330
8
100
AcDbSymbolTableRecord
100
AcDbViewportTableRecord
  2
*Active
 70
     0
 10
0.0
 20
0.0
 11
1.0
 21
1.0
 12
0.0
 22
-0.0081123905
 13
0.0
 23
0.0
 14
10.0
 24
10.0
 15
10.0
 25
10.0
 16
0.0
 26
0.0
 36
1.0
 17
0.0
 27
0.0
 37
0.0
 40
6.2041485607
 41
1.0019771731
 42
50.0
 43
0.0
 44
0.0
 50
0.0
 51
0.0
 71
     0
 72
   100
 73
     1
 74
     3
 75
     0
 76
     0
 77
     0
 78
     0
281
     0
 65
     1
110
0.0
120
0.0
130
0.0
111
1.0
121
0.0
131
0.0
112
0.0
122
1.0
132
0.0
 79
     0
146
0.0
  0
ENDTAB
  0
TABLE
  2
LTYPE
  5
5
330
0
100
AcDbSymbolTable
 70
     6
  0
LTYPE
  5
14
330
5
100
AcDbSymbolTableRecord
100
AcDbLinetypeTableRecord
  2
ByBlock
 70
     0
  3

 72
    65
 73
     0
 40
0.0
  0
LTYPE
  5
15
330
5
100
AcDbSymbolTableRecord
100
AcDbLinetypeTableRecord
  2
ByLayer
 70
     0
  3

 72
    65
 73
     0
 40
0.0
  0
LTYPE
  5
16
330
5
100
AcDbSymbolTableRecord
100
AcDbLinetypeTableRecord
  2
Continuous
 70
     0
  3
Solid line
 72
    65
 73
     0
 40
0.0
  0
LTYPE
  5
5E
330
5
100
AcDbSymbolTableRecord
100
AcDbLinetypeTableRecord
  2
HIDDEN
 70
     0
  3
Hidden __ __ __ __ __ __ __ __ __ __ __ __ __ __
 72
    65
 73
     2
 40
1.905
 49
1.27
 74
     0
 49
-0.635
 74
     0
  0
LTYPE
  5
5F
330
5
100
AcDbSymbolTableRecord
100
AcDbLinetypeTableRecord
  2
PHANTOM
 70
     0
  3
Phantom ______  __  __  ______  __  __  ______
 72
    65
 73
     6
 40
12.7
 49
6.35
 74
     0
 49
-1.27
 74
     0
 49
1.27
 74
     0
 49
-1.27
 74
     0
 49
1.27
 74
     0
 49
-1.27
 74
     0
  0
LTYPE
  5
60
330
5
100
AcDbSymbolTableRecord
100
AcDbLinetypeTableRecord
  2
CENTER
 70
     0
  3
Center ____ _ ____ _ ____ _ ____ _ ____ _ ____
 72
    65
 73
     4
 40
10.16
 49
6.35
 74
     0
 49
-1.27
 74
     0
 49
1.27
 74
     0
 49
-1.27
 74
     0
  0
LTYPE
  5
61
330
5
100
AcDbSymbolTableRecord
100
AcDbLinetypeTableRecord
  2
CENTERX2
 70
     0
  3
Center (2x) ________  __  ________  __  _____
 72
    65
 73
     4
 40
20.32
 49
12.7
 74
     0
 49
-2.54
 74
     0
 49
2.54
 74
     0
 49
-2.54
 74
     0
  0
LTYPE
  5
62
330
5
100
AcDbSymbolTableRecord
100
AcDbLinetypeTableRecord
  2
DOT2
 70
     0
  3
Dot (.5x) ........................................
 72
    65
 73
     2
 40
0.635
 49
0.0
 74
     0
 49
-0.635
 74
     0
  0
ENDTAB
  0
TABLE
  2
LAYER
  5
2
330
0
100
AcDbSymbolTable
 70
     1
  0
LAYER
  5
10
330
2
100
AcDbSymbolTableRecord
100
AcDbLayerTableRecord
  2
0
 70
     0
 62
     7
  6
Continuous
370
    -3
390
F
  0
ENDTAB
  0
TABLE
  2
STYLE
  5
3
330
0
100
AcDbSymbolTable
 70
     2
  0
STYLE
  5
11
330
3
100
AcDbSymbolTableRecord
100
AcDbTextStyleTableRecord
  2
Standard
 70
     0
 40
0.0
 41
1.0
 50
0.0
 71
     0
 42
3.5
  3
txt
  4

  0
STYLE
  5
B1
330
3
100
AcDbSymbolTableRecord
100
AcDbTextStyleTableRecord
  2
SLDTEXTSTYLE0
 70
     0
 40
0.0
 41
0.7
 50
0.0
 71
     0
 42
3.5
  3
TXT
  4

  0
ENDTAB
  0
TABLE
  2
VIEW
  5
6
330
0
100
AcDbSymbolTable
 70
     0
  0
ENDTAB
  0
TABLE
  2
UCS
  5
7
330
0
100
AcDbSymbolTable
 70
     0
  0
ENDTAB
  0
TABLE
  2
APPID
  5
9
330
0
100
AcDbSymbolTable
 70
     1
  0
APPID
  5
12
330
9
100
AcDbSymbolTableRecord
100
AcDbRegAppTableRecord
  2
ACAD
 70
     0
  0
ENDTAB
  0
TABLE
  2
DIMSTYLE
  5
A
330
0
100
AcDbSymbolTable
 70
     1
100
AcDbDimStyleTable
  0
DIMSTYLE
105
27
330
A
100
AcDbSymbolTableRecord
100
AcDbDimStyleTableRecord
  2
ISO-25
 70
     0
 41
2.5
 42
0.625
 43
3.75
 44
1.25
 73
     0
 74
     0
 77
     1
 78
     8
140
2.5
141
2.5
143
0.0393700787
147
0.625
171
     3
172
     1
178
     0
271
     2
272
     2
274
     3
278
    44
283
     0
284
     8
340
11
  0
ENDTAB
  0
TABLE
  2
BLOCK_RECORD
  5
1
330
0
100
AcDbSymbolTable
 70
     1
  0
BLOCK_RECORD
  5
1F
330
1
100
AcDbSymbolTableRecord
100
AcDbBlockTableRecord
  2
*Model_Space
340
22
  0
BLOCK_RECORD
  5
1B
330
1
100
AcDbSymbolTableRecord
100
AcDbBlockTableRecord
  2
*Paper_Space
340
1E
  0
BLOCK_RECORD
  5
23
330
1
100
AcDbSymbolTableRecord
100
AcDbBlockTableRecord
  2
*Paper_Space0
340
26
  0
ENDTAB
  0
ENDSEC
  0
SECTION
  2
BLOCKS
  0
BLOCK
  5
20
330
1F
100
AcDbEntity
  8
0
100
AcDbBlockBegin
  2
*Model_Space
 70
     0
 10
0.0
 20
0.0
 30
0.0
  3
*Model_Space
  1

  0
ENDBLK
  5
21
330
1F
100
AcDbEntity
  8
0
100
AcDbBlockEnd
  0
BLOCK
  5
1C
330
1B
100
AcDbEntity
 67
     1
  8
0
100
AcDbBlockBegin
  2
*Paper_Space
 70
     0
 10
0.0
 20
0.0
 30
0.0
  3
*Paper_Space
  1

  0
ENDBLK
  5
1D
330
1B
100
AcDbEntity
 67
     1
  8
0
100
AcDbBlockEnd
  0
BLOCK
  5
24
330
23
100
AcDbEntity
  8
0
100
AcDbBlockBegin
  2
*Paper_Space0
 70
     0
 10
0.0
 20
0.0
 30
0.0
  3
*Paper_Space0
  1

  0
ENDBLK
  5
25
330
23
100
AcDbEntity
  8
0
100
AcDbBlockEnd
  0
ENDSEC
  0
SECTION
  2
ENTITIES
  0
SPLINE
  5
63
330
1F
100
AcDbEntity
  8
0
  6
Continuous
 62
     7
370
    25
100
AcDbSpline
210
0.0
220
0.0
230
1.0
 70
    24
 71
     3
 72
     8
 73
     4
 74
     0
 42
0.00000001
 43
0.00000001
 40
0.0000000000000435
 40
0.0000000000000435
 40
0.0000000000000435
 40
0.0000000000000435
 40
0.0005970756765674
 40
0.0005970756765674
 40
0.0005970756765674
 40
0.0005970756765674
 10
3.04726237062743
 20
-0.1291976964325197
 30
0.0
 10
2.915457582218889
 20
-0.0646271968614169
 30
0.0
 10
2.782904097923719
 20
0.0003100850648774
 30
0.0
 10
2.649182473148082
 20
0.0658196330826556
 30
0.0
  0
SPLINE
  5
64
330
1F
100
AcDbEntity
  8
0
  6
Continuous
 62
     7
370
    25
100
AcDbSpline
210
0.0
220
0.0
230
1.0
 70
    24
 71
     3
 72
     8
 73
     4
 74
     0
 42
0.00000001
 43
0.00000001
 40
0.0000000000000197
 40
0.0000000000000197
 40
0.0000000000000197
 40
0.0000000000000197
 40
0.0005970756765181
 40
0.0005970756765181
 40
0.0005970756765181
 40
0.0005970756765181
 10
2.636542265484536
 20
0.2667299800210448
 30
0.0
 10
2.760998931811874
 20
0.3484827293074695
 30
0.0
 10
2.884368392776585
 20
0.4295213181551116
 30
0.0
 10
3.007041031542478
 20
0.5101021803722868
 30
0.0
  0
SPLINE
  5
65
330
1F
100
AcDbEntity
  8
0
  6
Continuous
 62
     7
370
    25
100
AcDbSpline
210
0.0
220
0.0
230
1.0
 70
    24
 71
     3
 72
     8
 73
     4
 74
     0
 42
0.00000001
 43
0.00000001
 40
0.0000000000000119
 40
0.0000000000000119
 40
0.0000000000000119
 40
0.0000000000000119
 40
0.0005970756766052
 40
0.0005970756766052
 40
0.0005970756766052
 40
0.0005970756766052
 10
3.007041031609988
 20
0.5101021804282583
 30
0.0
 10
2.884368392834316
 20
0.4295213182046595
 30
0.0
 10
2.760998931869062
 20
0.3484827293450346
 30
0.0
 10
2.636542265531725
 20
0.2667299800520421
 30
0.0
  0
SPLINE
  5
66
330
1F
100
AcDbEntity
  8
0
  6
Continuous
 62
     7
370
    25
100
AcDbSpline
210
0.0
220
0.0
230
1.0
 70
    24
 71
     3
 72
     8
 73
     4
 74
     0
 42
0.00000001
 43
0.00000001
 40
0.0000000000000134
 40
0.0000000000000134
 40
0.0000000000000134
 40
0.0000000000000134
 40
0.0005970756765412
 40
0.0005970756765412
 40
0.0005970756765412
 40
0.0005970756765412
 10
2.983657180203662
 20
0.6326846219321873
 30
0.0
 10
2.839935251358618
 20
0.6624480025619774
 30
0.0
 10
2.695396933205909
 20
0.6923804492878564
 30
0.0
 10
2.549584857080905
 20
0.7225766786107145
 30
0.0
  0
SPLINE
  5
67
330
1F
100
AcDbEntity
  8
0
  6
Continuous
 62
     7
370
    25
100
AcDbSpline
210
0.0
220
0.0
230
1.0
 70
    24
 71
     3
 72
     8
 73
     4
 74
     0
 42
0.00000001
 43
0.00000001
 40
0.0000000000000197
 40
0.0000000000000197
 40
0.0000000000000197
 40
0.0000000000000197
 40
0.0005970756765181
 40
0.0005970756765181
 40
0.0005970756765181
 40
0.0005970756765181
 10
2.487377393317338
 20
0.9140315657252817
 30
0.0
 10
2.587592942616744
 20
1.024167016365943
 30
0.0
 10
2.686933047588159
 20
1.133340366252297
 30
0.0
 10
2.785712054295581
 20
1.241897077197984
 30
0.0
  0
SPLINE
  5
68
330
1F
100
AcDbEntity
  8
0
  6
Continuous
 62
     7
370
    25
100
AcDbSpline
210
0.0
220
0.0
230
1.0
 70
    24
 71
     3
 72
     8
 73
     4
 74
     0
 42
0.00000001
 43
0.00000001
 40
0.0000000000000134
 40
0.0000000000000134
 40
0.0000000000000134
 40
0.0000000000000134
 40
0.0005970756765412
 40
0.0005970756765412
 40
0.0005970756765412
 40
0.0005970756765412
 10
2.732577836086546
 20
1.354813038592006
 30
0.0
 10
2.585969344151844
 20
1.347899157620694
 30
0.0
 10
2.438528066252452
 20
1.340946003458366
 30
0.0
 10
2.289787447765462
 20
1.333931573951264
 30
0.0
  0
SPLINE
  5
69
330
1F
100
AcDbEntity
  8
0
  6
Continuous
 62
     7
370
    25
100
AcDbSpline
210
0.0
220
0.0
230
1.0
 70
    24
 71
     3
 72
     8
 73
     4
 74
     0
 42
0.00000001
 43
0.00000001
 40
0.0000000000000197
 40
0.0000000000000197
 40
0.0000000000000197
 40
0.0000000000000197
 40
0.0005970756765181
 40
0.0005970756765181
 40
0.0005970756765181
 40
0.0005970756765181
 10
2.181921451593866
 20
1.503901186582045
 30
0.0
 10
2.251598972335851
 20
1.635499123163336
 30
0.0
 10
2.320667817171267
 20
1.765947471003551
 30
0.0
 10
2.389346543545019
 20
1.895659013285377
 30
0.0
  0
SPLINE
  5
6A
330
1F
100
AcDbEntity
  8
0
  6
Continuous
 62
     7
370
    25
100
AcDbSpline
210
0.0
220
0.0
230
1.0
 70
    24
 71
     3
 72
     8
 73
     4
 74
     0
 42
0.00000001
 43
0.00000001
 40
0.0000000000000134
 40
0.0000000000000134
 40
0.0000000000000134
 40
0.0000000000000134
 40
0.0005970756765412
 40
0.0005970756765412
 40
0.0005970756765412
 40
0.0005970756765412
 10
2.309800576809822
 20
1.991813569383281
 30
0.0
 10
2.169517472522032
 20
1.948656851379769
 30
0.0
 10
2.028437512617462
 20
1.905254988577164
 30
0.0
 10
1.886114271857751
 20
1.861470642643301
 30
0.0
  0
SPLINE
  5
6B
330
1F
100
AcDbEntity
  8
0
  6
Continuous
 62
     7
370
    25
100
AcDbSpline
210
0.0
220
0.0
230
1.0
 70
    24
 71
     3
 72
     8
 73
     4
 74
     0
 42
0.00000001
 43
0.00000001
 40
0.0000000000000197
 40
0.0000000000000197
 40
0.0000000000000197
 40
0.0000000000000197
 40
0.0005970756765181
 40
0.0005970756765181
 40
0.0005970756765181
 40
0.0005970756765181
 10
1.739367360520976
 20
1.999275164924193
 30
0.0
 10
1.774128757821324
 20
2.144066805107356
 30
0.0
 10
1.80858649298229
 20
2.287593601451164
 30
0.0
 10
1.842849602061619
 20
2.430309721821878
 30
0.0
  0
SPLINE
  5
6C
330
1F
100
AcDbEntity
  8
0
  6
Continuous
 62
     7
370
    25
100
AcDbSpline
210
0.0
220
0.0
230
1.0
 70
    24
 71
     3
 72
     8
 73
     4
 74
     0
 42
0.00000001
 43
0.00000001
 40
0.0000000000000134
 40
0.0000000000000134
 40
0.0000000000000134
 40
0.0000000000000134
 40
0.0005970756765412
 40
0.0005970756765412
 40
0.0005970756765412
 40
0.0005970756765412
 10
1.74189005243983
 20
2.503661128232315
 30
0.0
 10
1.616746839166525
 20
2.426973268508071
 30
0.0
 10
1.490892769993381
 20
2.349849795725962
 30
0.0
 10
1.36392959960615
 20
2.272046664847923
 30
0.0
  0
SPLINE
  5
6D
330
1F
100
AcDbEntity
  8
0
  6
Continuous
 62
     7
370
    25
100
AcDbSpline
210
0.0
220
0.0
230
1.0
 70
    24
 71
     3
 72
     8
 73
     4
 74
     0
 42
0.00000001
 43
0.00000001
 40
0.0000000000000197
 40
0.0000000000000197
 40
0.0000000000000197
 40
0.0000000000000197
 40
0.0005970756765181
 40
0.0005970756765181
 40
0.0005970756765181
 40
0.0005970756765181
 10
1.187522421240867
 20
2.369027331834432
 30
0.0
 10
1.185183508663721
 20
2.517914884360357
 30
0.0
 10
1.182865027923387
 20
2.665501812738847
 30
0.0
 10
1.18055964255394
 20
2.812255132482385
 30
0.0
  0
SPLINE
  5
6E
330
1F
100
AcDbEntity
  8
0
  6
Continuous
 62
     7
370
    25
100
AcDbSpline
210
0.0
220
0.0
230
1.0
 70
    24
 71
     3
 72
     8
 73
     4
 74
     0
 42
0.00000001
 43
0.00000001
 40
0.0000000000000068
 40
0.0000000000000068
 40
0.0000000000000068
 40
0.0000000000000068
 40
0.0005970756766034
 40
0.0005970756766034
 40
0.0005970756766034
 40
0.0005970756766034
 10
0.7560442144650122
 20
2.539861639134056
 30
0.0
 10
0.8596697515583115
 20
2.646794898115537
 30
0.0
 10
0.9623900559873881
 20
2.752794029452066
 30
0.0
 10
1.064530169923315
 20
2.858194450644331
 30
0.0
  0
SPLINE
  5
6F
330
1F
100
AcDbEntity
  8
0
  6
Continuous
 62
     7
370
    25
100
AcDbSpline
210
0.0
220
0.0
230
1.0
 70
    24
 71
     3
 72
     8
 73
     4
 74
     0
 42
0.00000001
 43
0.00000001
 40
0.0000000000000134
 40
0.0000000000000134
 40
0.0000000000000134
 40
0.0000000000000134
 40
0.0005970756765412
 40
0.0005970756765412
 40
0.0005970756765412
 40
0.0005970756765412
 10
1.064530169851566
 20
2.858194450572972
 30
0.0
 10
0.9623900559272499
 20
2.752794029392688
 30
0.0
 10
0.8596697515105686
 20
2.646794898066269
 30
0.0
 10
0.7560442144291225
 20
2.53986163909702
 30
0.0
  0
SPLINE
  5
70
330
1F
100
AcDbEntity
  8
0
  6
Continuous
 62
     7
370
    25
100
AcDbSpline
210
0.0
220
0.0
230
1.0
 70
    24
 71
     3
 72
     8
 73
     4
 74
     0
 42
0.00000001
 43
0.00000001
 40
0.0000000000000197
 40
0.0000000000000197
 40
0.0000000000000197
 40
0.0000000000000197
 40
0.0005970756765181
 40
0.0005970756765181
 40
0.0005970756765181
 40
0.0005970756765181
 10
0.5610610808322468
 20
2.589924798812448
 30
0.0
 10
0.5217688208567478
 20
2.733553111185814
 30
0.0
 10
0.4828198028868059
 20
2.875926742102207
 30
0.0
 10
0.4440907789099589
 20
3.017496210418124
 30
0.0
  0
SPLINE
  5
71
330
1F
100
AcDbEntity
  8
0
  6
Continuous
 62
     7
370
    25
100
AcDbSpline
210
0.0
220
0.0
230
1.0
 70
    24
 71
     3
 72
     8
 73
     4
 74
     0
 42
0.00000001
 43
0.00000001
 40
0.0000000000000068
 40
0.0000000000000068
 40
0.0000000000000068
 40
0.0000000000000068
 40
0.0005970756766034
 40
0.0005970756766034
 40
0.0005970756766034
 40
0.0005970756766034
 10
0.1006537907489351
 20
2.648087765648758
 30
0.0
 10
0.1744305209301407
 20
2.777432142789957
 30
0.0
 10
0.2475627660944973
 20
2.905646617414788
 30
0.0
 10
0.3202819416751636
 20
3.033136903967213
 30
0.0
  0
SPLINE
  5
72
330
1F
100
AcDbEntity
  8
0
  6
Continuous
 62
     7
370
    25
100
AcDbSpline
210
0.0
220
0.0
230
1.0
 70
    24
 71
     3
 72
     8
 73
     4
 74
     0
 42
0.00000001
 43
0.00000001
 40
0.0000000000000134
 40
0.0000000000000134
 40
0.0000000000000134
 40
0.0000000000000134
 40
0.0005970756765412
 40
0.0005970756765412
 40
0.0005970756765412
 40
0.0005970756765412
 10
0.3202819416234147
 20
3.033136903880254
 30
0.0
 10
0.2475627660510145
 20
2.905646617342321
 30
0.0
 10
0.1744305208961496
 20
2.777432142730365
 30
0.0
 10
0.100653790723383
 20
2.648087765603961
 30
0.0
  0
SPLINE
  5
73
330
1F
100
AcDbEntity
  8
0
  6
Continuous
 62
     7
370
    25
100
AcDbSpline
210
0.0
220
0.0
230
1.0
 70
    24
 71
     3
 72
     8
 73
     4
 74
     0
 42
0.00000001
 43
0.00000001
 40
0.0000000000000197
 40
0.0000000000000197
 40
0.0000000000000197
 40
0.0000000000000197
 40
0.0005970756765181
 40
0.0005970756765181
 40
0.0005970756765181
 40
0.0005970756765181
 10
-0.1006537907233828
 20
2.64808776560396
 30
0.0
 10
-0.1744305208961509
 20
2.777432142730367
 30
0.0
 10
-0.2475627660521824
 20
2.905646617340602
 30
0.0
 10
-0.3202819416245775
 20
3.033136903878526
 30
0.0
  0
SPLINE
  5
74
330
1F
100
AcDbEntity
  8
0
  6
Continuous
 62
     7
370
    25
100
AcDbSpline
210
0.0
220
0.0
230
1.0
 70
    24
 71
     3
 72
     8
 73
     4
 74
     0
 42
0.00000001
 43
0.00000001
 40
0.0000000000000068
 40
0.0000000000000068
 40
0.0000000000000068
 40
0.0000000000000068
 40
0.0005970756766034
 40
0.0005970756766034
 40
0.0005970756766034
 40
0.0005970756766034
 10
-0.5610610808186015
 20
2.589924798862203
 30
0.0
 10
-0.5217688208386069
 20
2.733553111251994
 30
0.0
 10
-0.4828198028642288
 20
2.875926742184595
 30
0.0
 10
-0.4440907788829747
 20
3.017496210516614
 30
0.0
  0
SPLINE
  5
75
330
1F
100
AcDbEntity
  8
0
  6
Continuous
 62
     7
370
    25
100
AcDbSpline
210
0.0
220
0.0
230
1.0
 70
    24
 71
     3
 72
     8
 73
     4
 74
     0
 42
0.00000001
 43
0.00000001
 40
0.0000000000000134
 40
0.0000000000000134
 40
0.0000000000000134
 40
0.0000000000000134
 40
0.0005970756765412
 40
0.0005970756765412
 40
0.0005970756765412
 40
0.0005970756765412
 10
-0.4440907789114724
 20
3.017496210419518
 30
0.0
 10
-0.482819802888324
 20
2.875926742103592
 30
0.0
 10
-0.52176882085671
 20
2.733553111185821
 30
0.0
 10
-0.5610610808322103
 20
2.589924798812457
 30
0.0
  0
SPLINE
  5
76
330
1F
100
AcDbEntity
  8
0
  6
Continuous
 62
     7
370
    25
100
AcDbSpline
210
0.0
220
0.0
230
1.0
 70
    24
 71
     3
 72
     8
 73
     4
 74
     0
 42
0.00000001
 43
0.00000001
 40
0.0000000000000197
 40
0.0000000000000197
 40
0.0000000000000197
 40
0.0000000000000197
 40
0.0005970756765181
 40
0.0005970756765181
 40
0.0005970756765181
 40
0.0005970756765181
 10
-0.7560442144290834
 20
2.539861639097033
 30
0.0
 10
-0.8596697515105304
 20
2.646794898066286
 30
0.0
 10
-0.9623900559279126
 20
2.75279402939075
 30
0.0
 10
-1.064530169852221
 20
2.858194450571029
 30
0.0
  0
SPLINE
  5
77
330
1F
100
AcDbEntity
  8
0
  6
Continuous
 62
     7
370
    25
100
AcDbSpline
210
0.0
220
0.0
230
1.0
 70
    24
 71
     3
 72
     8
 73
     4
 74
     0
 42
0.00000001
 43
0.00000001
 40
0.0000000000000068
 40
0.0000000000000068
 40
0.0000000000000068
 40
0.0000000000000068
 40
0.0005970756766034
 40
0.0005970756766034
 40
0.0005970756766034
 40
0.0005970756766034
 10
-1.187522421240023
 20
2.369027331886017
 30
0.0
 10
-1.185183508662608
 20
2.51791488442897
 30
0.0
 10
-1.182865027922008
 20
2.66550181282426
 30
0.0
 10
-1.180559642552297
 20
2.81225513258449
 30
0.0
  0
SPLINE
  5
78
330
1F
100
AcDbEntity
  8
0
  6
Continuous
 62
     7
370
    25
100
AcDbSpline
210
0.0
220
0.0
230
1.0
 70
    24
 71
     3
 72
     8
 73
     4
 74
     0
 42
0.00000001
 43
0.00000001
 40
0.0000000000000134
 40
0.0000000000000134
 40
0.0000000000000134
 40
0.0000000000000134
 40
0.0005970756765412
 40
0.0005970756765412
 40
0.0005970756765412
 40
0.0005970756765412
 10
-1.180559642555753
 20
2.812255132483356
 30
0.0
 10
-1.182865027925202
 20
2.665501812739808
 30
0.0
 10
-1.185183508663685
 20
2.517914884360372
 30
0.0
 10
-1.187522421240833
 20
2.36902733183445
 30
0.0
  0
SPLINE
  5
79
330
1F
100
AcDbEntity
  8
0
  6
Continuous
 62
     7
370
    25
100
AcDbSpline
210
0.0
220
0.0
230
1.0
 70
    24
 71
     3
 72
     8
 73
     4
 74
     0
 42
0.00000001
 43
0.00000001
 40
0.0000000000000197
 40
0.0000000000000197
 40
0.0000000000000197
 40
0.0000000000000197
 40
0.0005970756765181
 40
0.0005970756765181
 40
0.0005970756765181
 40
0.0005970756765181
 10
-1.363929599606124
 20
2.272046664847938
 30
0.0
 10
-1.490892769993356
 20
2.349849795725981
 30
0.0
 10
-1.616746839166692
 20
2.42697326850602
 30
0.0
 10
-1.741890052439988
 20
2.503661128230261
 30
0.0
  0
SPLINE
  5
7A
330
1F
100
AcDbEntity
  8
0
  6
Continuous
 62
     7
370
    25
100
AcDbSpline
210
0.0
220
0.0
230
1.0
 70
    24
 71
     3
 72
     8
 73
     4
 74
     0
 42
0.00000001
 43
0.00000001
 40
0.0000000000000068
 40
0.0000000000000068
 40
0.0000000000000068
 40
0.0000000000000068
 40
0.0005970756766033
 40
0.0005970756766033
 40
0.0005970756766033
 40
0.0005970756766033
 10
-1.739367360532981
 20
1.999275164974367
 30
0.0
 10
-1.774128757837303
 20
2.144066805174091
 30
0.0
 10
-1.808586493002189
 20
2.287593601534238
 30
0.0
 10
-1.842849602085414
 20
2.430309721921187
 30
0.0
  0
SPLINE
  5
7B
330
1F
100
AcDbEntity
  8
0
  6
Continuous
 62
     7
370
    25
100
AcDbSpline
210
0.0
220
0.0
230
1.0
 70
    24
 71
     3
 72
     8
 73
     4
 74
     0
 42
0.00000001
 43
0.00000001
 40
0.0000000000000134
 40
0.0000000000000134
 40
0.0000000000000134
 40
0.0000000000000134
 40
0.0005970756765412
 40
0.0005970756765412
 40
0.0005970756765412
 40
0.0005970756765412
 10
-1.842849602063608
 20
2.430309721822371
 30
0.0
 10
-1.808586492984279
 20
2.287593601451646
 30
0.0
 10
-1.774128757821287
 20
2.14406680510738
 30
0.0
 10
-1.739367360520942
 20
1.999275164924219
 30
0.0
  0
SPLINE
  5
7C
330
1F
100
AcDbEntity
  8
0
  6
Continuous
 62
     7
370
    25
100
AcDbSpline
210
0.0
220
0.0
230
1.0
 70
    24
 71
     3
 72
     8
 73
     4
 74
     0
 42
0.00000001
 43
0.00000001
 40
0.0000000000000197
 40
0.0000000000000197
 40
0.0000000000000197
 40
0.0000000000000197
 40
0.0005970756765181
 40
0.0005970756765181
 40
0.0005970756765181
 40
0.0005970756765181
 10
-1.886114271857724
 20
1.861470642643325
 30
0.0
 10
-2.028437512617436
 20
1.905254988577191
 30
0.0
 10
-2.169517472521678
 20
1.948656851377745
 30
0.0
 10
-2.309800576809458
 20
1.991813569381256
 30
0.0
  0
SPLINE
  5
7D
330
1F
100
AcDbEntity
  8
0
  6
Continuous
 62
     7
370
    25
100
AcDbSpline
210
0.0
220
0.0
230
1.0
 70
    24
 71
     3
 72
     8
 73
     4
 74
     0
 42
0.00000001
 43
0.00000001
 40
0.0000000000000068
 40
0.0000000000000068
 40
0.0000000000000068
 40
0.0000000000000068
 40
0.0005970756766033
 40
0.0005970756766033
 40
0.0005970756766033
 40
0.0005970756766033
 10
-2.181921451617976
 20
1.503901186627654
 30
0.0
 10
-2.251598972367928
 20
1.635499123223997
 30
0.0
 10
-2.320667817211205
 20
1.765947471079062
 30
0.0
 10
-2.389346543592766
 20
1.895659013375642
 30
0.0
  0
SPLINE
  5
7E
330
1F
100
AcDbEntity
  8
0
  6
Continuous
 62
     7
370
    25
100
AcDbSpline
210
0.0
220
0.0
230
1.0
 70
    24
 71
     3
 72
     8
 73
     4
 74
     0
 42
0.00000001
 43
0.00000001
 40
0.0000000000000134
 40
0.0000000000000134
 40
0.0000000000000134
 40
0.0000000000000134
 40
0.0005970756765412
 40
0.0005970756765412
 40
0.0005970756765412
 40
0.0005970756765412
 10
-2.389346543547071
 20
1.895659013285353
 30
0.0
 10
-2.320667817173318
 20
1.765947471003517
 30
0.0
 10
-2.251598972335825
 20
1.635499123163366
 30
0.0
 10
-2.181921451593844
 20
1.503901186582076
 30
0.0
  0
SPLINE
  5
7F
330
1F
100
AcDbEntity
  8
0
  6
Continuous
 62
     7
370
    25
100
AcDbSpline
210
0.0
220
0.0
230
1.0
 70
    24
 71
     3
 72
     8
 73
     4
 74
     0
 42
0.00000001
 43
0.00000001
 40
0.0000000000000197
 40
0.0000000000000197
 40
0.0000000000000197
 40
0.0000000000000197
 40
0.0005970756765181
 40
0.0005970756765181
 40
0.0005970756765181
 40
0.0005970756765181
 10
-2.289787447765441
 20
1.333931573951298
 30
0.0
 10
-2.438528066252434
 20
1.340946003458402
 30
0.0
 10
-2.585969344150998
 20
1.347899157618825
 30
0.0
 10
-2.73257783608569
 20
1.354813038590139
 30
0.0
  0
SPLINE
  5
80
330
1F
100
AcDbEntity
  8
0
  6
Continuous
 62
     7
370
    25
100
AcDbSpline
210
0.0
220
0.0
230
1.0
 70
    24
 71
     3
 72
     8
 73
     4
 74
     0
 42
0.00000001
 43
0.00000001
 40
0.0000000000000068
 40
0.0000000000000068
 40
0.0000000000000068
 40
0.0000000000000068
 40
0.0005970756766033
 40
0.0005970756766033
 40
0.0005970756766033
 40
0.0005970756766033
 10
-2.487377393352032
 20
0.9140315657634623
 30
0.0
 10
-2.587592942662898
 20
1.024167016416721
 30
0.0
 10
-2.686933047645621
 20
1.133340366315506
 30
0.0
 10
-2.785712054364277
 20
1.241897077273541
 30
0.0
  0
SPLINE
  5
81
330
1F
100
AcDbEntity
  8
0
  6
Continuous
 62
     7
370
    25
100
AcDbSpline
210
0.0
220
0.0
230
1.0
 70
    24
 71
     3
 72
     8
 73
     4
 74
     0
 42
0.00000001
 43
0.00000001
 40
0.0000000000000134
 40
0.0000000000000134
 40
0.0000000000000134
 40
0.0000000000000134
 40
0.0005970756765412
 40
0.0005970756765412
 40
0.0005970756765412
 40
0.0005970756765412
 10
-2.785712054297564
 20
1.241897077197453
 30
0.0
 10
-2.686933047590136
 20
1.133340366251757
 30
0.0
 10
-2.587592942616726
 20
1.024167016365978
 30
0.0
 10
-2.487377393317324
 20
0.9140315657253176
 30
0.0
  0
SPLINE
  5
82
330
1F
100
AcDbEntity
  8
0
  6
Continuous
 62
     7
370
    25
100
AcDbSpline
210
0.0
220
0.0
230
1.0
 70
    24
 71
     3
 72
     8
 73
     4
 74
     0
 42
0.00000001
 43
0.00000001
 40
0.0000000000000197
 40
0.0000000000000197
 40
0.0000000000000197
 40
0.0000000000000197
 40
0.0005970756765181
 40
0.0005970756765181
 40
0.0005970756765181
 40
0.0005970756765181
 10
-2.549584857080894
 20
0.7225766786107514
 30
0.0
 10
-2.695396933205902
 20
0.6923804492878948
 30
0.0
 10
-2.839935251357334
 20
0.6624480025603762
 30
0.0
 10
-2.983657180202369
 20
0.63268462193059
 30
0.0
  0
SPLINE
  5
83
330
1F
100
AcDbEntity
  8
0
  6
Continuous
 62
     7
370
    25
100
AcDbSpline
210
0.0
220
0.0
230
1.0
 70
    24
 71
     3
 72
     8
 73
     4
 74
     0
 42
0.00000001
 43
0.00000001
 40
0.0000000000000068
 40
0.0000000000000068
 40
0.0000000000000068
 40
0.0000000000000068
 40
0.0005970756766034
 40
0.0005970756766034
 40
0.0005970756766034
 40
0.0005970756766034
 10
-2.636542265527637
 20
0.2667299800493992
 30
0.0
 10
-2.760998931869207
 20
0.3484827293451757
 30
0.0
 10
-2.884368392847961
 20
0.429521318202045
 30
0.0
 10
-3.007041031627806
 20
0.5101021804283874
 30
0.0
  0
SPLINE
  5
84
330
1F
100
AcDbEntity
  8
0
  6
Continuous
 62
     7
370
    25
100
AcDbSpline
210
0.0
220
0.0
230
1.0
 70
    24
 71
     3
 72
     8
 73
     4
 74
     0
 42
0.00000001
 43
0.00000001
 40
0.0000000000000134
 40
0.0000000000000134
 40
0.0000000000000134
 40
0.0000000000000134
 40
0.0005970756765412
 40
0.0005970756765412
 40
0.0005970756765412
 40
0.0005970756765412
 10
-3.007041031544267
 20
0.5101021803712803
 30
0.0
 10
-2.884368392778367
 20
0.4295213181540978
 30
0.0
 10
-2.760998931811867
 20
0.3484827293075097
 30
0.0
 10
-2.636542265484532
 20
0.2667299800210845
 30
0.0
  0
SPLINE
  5
85
330
1F
100
AcDbEntity
  8
0
  6
Continuous
 62
     7
370
    25
100
AcDbSpline
210
0.0
220
0.0
230
1.0
 70
    24
 71
     3
 72
     8
 73
     4
 74
     0
 42
0.00000001
 43
0.00000001
 40
0.0000000000000197
 40
0.0000000000000197
 40
0.0000000000000197
 40
0.0000000000000197
 40
0.0005970756765181
 40
0.0005970756765181
 40
0.0005970756765181
 40
0.0005970756765181
 10
-2.649182473108768
 20
0.0658196331019567
 30
0.0
 10
-2.782904097869551
 20
0.0003100850914579
 30
0.0
 10
-2.915457582169647
 20
-0.064627196812274
 30
0.0
 10
-3.047262370563407
 20
-0.1291976963761337
 30
0.0
  0
SPLINE
  5
86
330
1F
100
AcDbEntity
  8
0
  6
Continuous
 62
     7
370
    25
100
AcDbSpline
210
0.0
220
0.0
230
1.0
 70
    24
 71
     3
 72
     8
 73
     4
 74
     0
 42
0.00000001
 43
0.00000001
 40
0.0000000000000028
 40
0.0000000000000028
 40
0.0000000000000028
 40
0.0000000000000028
 40
0.0005970756765487
 40
0.0005970756765487
 40
0.0005970756765487
 40
0.0005970756765487
 10
-2.620043490604049
 20
-0.3973312312863461
 30
0.0
 10
-2.760921203896518
 20
-0.3490980092566671
 30
0.0
 10
-2.900568263903149
 20
-0.3012861340233697
 30
0.0
 10
-3.039426561677643
 20
-0.2537443124627374
 30
0.0
  0
SPLINE
  5
87
330
1F
100
AcDbEntity
  8
0
  6
Continuous
 62
     7
370
    25
100
AcDbSpline
210
0.0
220
0.0
230
1.0
 70
    24
 71
     3
 72
     8
 73
     4
 74
     0
 42
0.00000001
 43
0.00000001
 40
0.0000000000000134
 40
0.0000000000000134
 40
0.0000000000000134
 40
0.0000000000000134
 40
0.0005970756765412
 40
0.0005970756765412
 40
0.0005970756765412
 40
0.0005970756765412
 10
-3.039426561655724
 20
-0.2537443124722137
 30
0.0
 10
-2.900568263883421
 20
-0.3012861340320959
 30
0.0
 10
-2.760921203877497
 20
-0.3490980092631795
 30
0.0
 10
-2.620043490587178
 20
-0.3973312312921223
 30
0.0
  0
SPLINE
  5
88
330
1F
100
AcDbEntity
  8
0
  6
Continuous
 62
     7
370
    25
100
AcDbSpline
210
0.0
220
0.0
230
1.0
 70
    24
 71
     3
 72
     8
 73
     4
 74
     0
 42
0.00000001
 43
0.00000001
 40
0.0000000000000197
 40
0.0000000000000197
 40
0.0000000000000197
 40
0.0000000000000197
 40
0.0005970756765181
 40
0.0005970756765181
 40
0.0005970756765181
 40
0.0005970756765181
 10
-2.58232221133961
 20
-0.5950731020223117
 30
0.0
 10
-2.695551163258714
 20
-0.691779762891689
 30
0.0
 10
-2.807790990791284
 20
-0.787641631727006
 30
0.0
 10
-2.919396859134889
 20
-0.8829620482636563
 30
0.0
  0
SPLINE
  5
89
330
1F
100
AcDbEntity
  8
0
  6
Continuous
 62
     7
370
    25
100
AcDbSpline
210
0.0
220
0.0
230
1.0
 70
    24
 71
     3
 72
     8
 73
     4
 74
     0
 42
0.00000001
 43
0.00000001
 40
0.0000000000000068
 40
0.0000000000000068
 40
0.0000000000000068
 40
0.0000000000000068
 40
0.0005970756766033
 40
0.0005970756766033
 40
0.0005970756766033
 40
0.0005970756766033
 10
-2.438917747381725
 20
-1.036426660057151
 30
0.0
 10
-2.587364642813989
 20
-1.024743636013814
 30
0.0
 10
-2.734514763508896
 20
-1.013162670355675
 30
0.0
 10
-2.880833742770105
 20
-1.00164711694698
 30
0.0
  0
SPLINE
  5
8A
330
1F
100
AcDbEntity
  8
0
  6
Continuous
 62
     7
370
    25
100
AcDbSpline
210
0.0
220
0.0
230
1.0
 70
    24
 71
     3
 72
     8
 73
     4
 74
     0
 42
0.00000001
 43
0.00000001
 40
0.0000000000000134
 40
0.0000000000000134
 40
0.0000000000000134
 40
0.0000000000000134
 40
0.0005970756765412
 40
0.0005970756765412
 40
0.0005970756765412
 40
0.0005970756765412
 10
-2.880833742669388
 20
-1.001647116956778
 30
0.0
 10
-2.734514763424811
 20
-1.013162670364164
 30
0.0
 10
-2.587364642745595
 20
-1.024743636019197
 30
0.0
 10
-2.438917747330311
 20
-1.036426660061198
 30
0.0
  0
SPLINE
  5
8B
330
1F
100
AcDbEntity
  8
0
  6
Continuous
 62
     7
370
    25
100
AcDbSpline
210
0.0
220
0.0
230
1.0
 70
    24
 71
     3
 72
     8
 73
     4
 74
     0
 42
0.00000001
 43
0.00000001
 40
0.0000000000000197
 40
0.0000000000000197
 40
0.0000000000000197
 40
0.0000000000000197
 40
0.0005970756765181
 40
0.0005970756765181
 40
0.0005970756765181
 40
0.0005970756765181
 10
-2.353205147915227
 20
-1.218575205620739
 30
0.0
 10
-2.438826835516619
 20
-1.340402544184351
 30
0.0
 10
-2.523700565128581
 20
-1.461165646177038
 30
0.0
 10
-2.608094906256329
 20
-1.581246647351511
 30
0.0
  0
SPLINE
  5
8C
330
1F
100
AcDbEntity
  8
0
  6
Continuous
 62
     7
370
    25
100
AcDbSpline
210
0.0
220
0.0
230
1.0
 70
    24
 71
     3
 72
     8
 73
     4
 74
     0
 42
0.00000001
 43
0.00000001
 40
0.0000000000000119
 40
0.0000000000000119
 40
0.0000000000000119
 40
0.0000000000000119
 40
0.0005970756766052
 40
0.0005970756766052
 40
0.0005970756766052
 40
0.0005970756766052
 10
-2.608094906298493
 20
-1.581246647428402
 30
0.0
 10
-2.523700565164017
 20
-1.461165646244357
 30
0.0
 10
-2.438826835555961
 20
-1.340402544240328
 30
0.0
 10
-2.35320514794769
 20
-1.218575205666929
 30
0.0
  0
SPLINE
  5
8D
330
1F
100
AcDbEntity
  8
0
  6
Continuous
 62
     7
370
    25
100
AcDbSpline
210
0.0
220
0.0
230
1.0
 70
    24
 71
     3
 72
     8
 73
     4
 74
     0
 42
0.00000001
 43
0.00000001
 40
0.0000000000000068
 40
0.0000000000000068
 40
0.0000000000000068
 40
0.0000000000000068
 40
0.0005970756766034
 40
0.0005970756766034
 40
0.0005970756766034
 40
0.0005970756766034
 10
-2.10454583234745
 20
-1.610399590076866
 30
0.0
 10
-2.251234445516046
 20
-1.636000851392452
 30
0.0
 10
-2.396641643621963
 20
-1.66137846997828
 30
0.0
 10
-2.54122754476575
 20
-1.686612749298088
 30
0.0
  0
SPLINE
  5
8E
330
1F
100
AcDbEntity
  8
0
  6
Continuous
 62
     7
370
    25
100
AcDbSpline
210
0.0
220
0.0
230
1.0
 70
    24
 71
     3
 72
     8
 73
     4
 74
     0
 42
0.00000001
 43
0.00000001
 40
0.0000000000000134
 40
0.0000000000000134
 40
0.0000000000000134
 40
0.0000000000000134
 40
0.0005970756765412
 40
0.0005970756765412
 40
0.0005970756765412
 40
0.0005970756765412
 10
-2.541227544665761
 20
-1.686612749282531
 30
0.0
 10
-2.396641643538409
 20
-1.661378469965592
 30
0.0
 10
-2.251234445448463
 20
-1.636000851380657
 30
0.0
 10
-2.104545832296644
 20
-1.610399590067999
 30
0.0
  0
SPLINE
  5
8F
330
1F
100
AcDbEntity
  8
0
  6
Continuous
 62
     7
370
    25
100
AcDbSpline
210
0.0
220
0.0
230
1.0
 70
    24
 71
     3
 72
     8
 73
     4
 74
     0
 42
0.00000001
 43
0.00000001
 40
0.0000000000000197
 40
0.0000000000000197
 40
0.0000000000000197
 40
0.0000000000000197
 40
0.0005970756765181
 40
0.0005970756765181
 40
0.0005970756765181
 40
0.0005970756765181
 10
-1.976227550564189
 20
-1.765509747443898
 30
0.0
 10
-2.028862048321334
 20
-1.904802903970184
 30
0.0
 10
-2.081036751437425
 20
-2.042879249286419
 30
0.0
 10
-2.132916758515584
 20
-2.180175704167893
 30
0.0
  0
SPLINE
  5
90
330
1F
100
AcDbEntity
  8
0
  6
Continuous
 62
     7
370
    25
100
AcDbSpline
210
0.0
220
0.0
230
1.0
 70
    24
 71
     3
 72
     8
 73
     4
 74
     0
 42
0.00000001
 43
0.00000001
 40
0.0000000000000119
 40
0.0000000000000119
 40
0.0000000000000119
 40
0.0000000000000119
 40
0.0005970756766052
 40
0.0005970756766052
 40
0.0005970756766052
 40
0.0005970756766052
 10
-2.132916758537301
 20
-2.180175704252857
 30
0.0
 10
-2.081036751455006
 20
-2.042879249360439
 30
0.0
 10
-2.028862048345519
 20
-1.904802904034189
 30
0.0
 10
-1.976227550584146
 20
-1.765509747496713
 30
0.0
  0
SPLINE
  5
91
330
1F
100
AcDbEntity
  8
0
  6
Continuous
 62
     7
370
    25
100
AcDbSpline
210
0.0
220
0.0
230
1.0
 70
    24
 71
     3
 72
     8
 73
     4
 74
     0
 42
0.00000001
 43
0.00000001
 40
0.0000000000000068
 40
0.0000000000000068
 40
0.0000000000000068
 40
0.0000000000000068
 40
0.0005970756766034
 40
0.0005970756766034
 40
0.0005970756766034
 40
0.0005970756766034
 10
-1.637937562688634
 20
-2.083185191216653
 30
0.0
 10
-1.773650908545198
 20
-2.144462116487852
 30
0.0
 10
-1.908178715034862
 20
-2.205203750209549
 30
0.0
 10
-2.041946674142614
 20
-2.265602299683008
 30
0.0
  0
SPLINE
  5
92
330
1F
100
AcDbEntity
  8
0
  6
Continuous
 62
     7
370
    25
100
AcDbSpline
210
0.0
220
0.0
230
1.0
 70
    24
 71
     3
 72
     8
 73
     4
 74
     0
 42
0.00000001
 43
0.00000001
 40
0.0000000000000134
 40
0.0000000000000134
 40
0.0000000000000134
 40
0.0000000000000134
 40
0.0005970756765412
 40
0.0005970756765412
 40
0.0005970756765412
 40
0.0005970756765412
 10
-2.041946674049635
 20
-2.265602299643074
 30
0.0
 10
-1.908178714957088
 20
-2.20520375017648
 30
0.0
 10
-1.773650908482671
 20
-2.14446211645962
 30
0.0
 10
-1.637937562641631
 20
-2.083185191195431
 30
0.0
  0
SPLINE
  5
93
330
1F
100
AcDbEntity
  8
0
  6
Continuous
 62
     7
370
    25
100
AcDbSpline
210
0.0
220
0.0
230
1.0
 70
    24
 71
     3
 72
     8
 73
     4
 74
     0
 42
0.00000001
 43
0.00000001
 40
0.0000000000000197
 40
0.0000000000000197
 40
0.0000000000000197
 40
0.0000000000000197
 40
0.0005970756765181
 40
0.0005970756765181
 40
0.0005970756765181
 40
0.0005970756765181
 10
-1.475076308154677
 20
-2.201510818744509
 30
0.0
 10
-1.491416396997352
 20
-2.349517491924527
 30
0.0
 10
-1.507613745135652
 20
-2.496231235978815
 30
0.0
 10
-1.523719606518184
 20
-2.642116303366046
 30
0.0
  0
SPLINE
  5
94
330
1F
100
AcDbEntity
  8
0
  6
Continuous
 62
     7
370
    25
100
AcDbSpline
210
0.0
220
0.0
230
1.0
 70
    24
 71
     3
 72
     8
 73
     4
 74
     0
 42
0.00000001
 43
0.00000001
 40
0.0000000000000119
 40
0.0000000000000119
 40
0.0000000000000119
 40
0.0000000000000119
 40
0.0005970756766052
 40
0.0005970756766052
 40
0.0005970756766052
 40
0.0005970756766052
 10
-1.523719606518088
 20
-2.642116303453742
 30
0.0
 10
-1.507613745134273
 20
-2.49623123605488
 30
0.0
 10
-1.49141639700486
 20
-2.349517491992536
 30
0.0
 10
-1.475076308160872
 20
-2.201510818800627
 30
0.0
  0
SPLINE
  5
95
330
1F
100
AcDbEntity
  8
0
  6
Continuous
 62
     7
370
    25
100
AcDbSpline
210
0.0
220
0.0
230
1.0
 70
    24
 71
     3
 72
     8
 73
     4
 74
     0
 42
0.00000001
 43
0.00000001
 40
0.0000000000000068
 40
0.0000000000000068
 40
0.0000000000000068
 40
0.0000000000000068
 40
0.0005970756766033
 40
0.0005970756766033
 40
0.0005970756766033
 40
0.0005970756766033
 10
-1.068411652053114
 20
-2.425076605373096
 30
0.0
 10
-1.184622361958704
 20
-2.518178940024349
 30
0.0
 10
-1.299817899991704
 20
-2.610467968643077
 30
0.0
 10
-1.41436278422854
 20
-2.702235725276444
 30
0.0
  0
SPLINE
  5
96
330
1F
100
AcDbEntity
  8
0
  6
Continuous
 62
     7
370
    25
100
AcDbSpline
210
0.0
220
0.0
230
1.0
 70
    24
 71
     3
 72
     8
 73
     4
 74
     0
 42
0.00000001
 43
0.00000001
 40
0.0000000000000134
 40
0.0000000000000134
 40
0.0000000000000134
 40
0.0000000000000134
 40
0.0005970756765412
 40
0.0005970756765412
 40
0.0005970756765412
 40
0.0005970756765412
 10
-1.414362784148411
 20
-2.702235725214639
 30
0.0
 10
-1.299817899924596
 20
-2.610467968591704
 30
0.0
 10
-1.18462236190516
 20
-2.518178939981453
 30
0.0
 10
-1.068411652012863
 20
-2.425076605340849
 30
0.0
  0
SPLINE
  5
97
330
1F
100
AcDbEntity
  8
0
  6
Continuous
 62
     7
370
    25
100
AcDbSpline
210
0.0
220
0.0
230
1.0
 70
    24
 71
     3
 72
     8
 73
     4
 74
     0
 42
0.00000001
 43
0.00000001
 40
0.0000000000000197
 40
0.0000000000000197
 40
0.0000000000000197
 40
0.0000000000000197
 40
0.0005970756765181
 40
0.0005970756765181
 40
0.0005970756765181
 40
0.0005970756765181
 10
-0.8812405963526246
 20
-2.499182868712977
 30
0.0
 10
-0.8602595684042009
 20
-2.64660325494036
 30
0.0
 10
-0.8394618226115033
 20
-2.792735833618362
 30
0.0
 10
-0.8187815477945268
 20
-2.938043018199665
 30
0.0
  0
SPLINE
  5
98
330
1F
100
AcDbEntity
  8
0
  6
Continuous
 62
     7
370
    25
100
AcDbSpline
210
0.0
220
0.0
230
1.0
 70
    24
 71
     3
 72
     8
 73
     4
 74
     0
 42
0.00000001
 43
0.00000001
 40
0.0000000000000119
 40
0.0000000000000119
 40
0.0000000000000119
 40
0.0000000000000119
 40
0.0005970756766052
 40
0.0005970756766052
 40
0.0005970756766052
 40
0.0005970756766052
 10
-0.8187815477726264
 20
-2.938043018284582
 30
0.0
 10
-0.8394618225912515
 20
-2.792735833691695
 30
0.0
 10
-0.8602595683945603
 20
-2.646603255008098
 30
0.0
 10
-0.8812405963446697
 20
-2.499182868768872
 30
0.0
  0
SPLINE
  5
99
330
1F
100
AcDbEntity
  8
0
  6
Continuous
 62
     7
370
    25
100
AcDbSpline
210
0.0
220
0.0
230
1.0
 70
    24
 71
     3
 72
     8
 73
     4
 74
     0
 42
0.00000001
 43
0.00000001
 40
0.0000000000000134
 40
0.0000000000000134
 40
0.0000000000000134
 40
0.0000000000000134
 40
0.0005970756765412
 40
0.0005970756765412
 40
0.0005970756765412
 40
0.0005970756765412
 10
-0.6979092788566931
 20
-2.96907774204315
 30
0.0
 10
-0.6097847458440077
 20
-2.851706883910694
 30
0.0
 10
-0.5211596355928673
 20
-2.733669319489938
 30
0.0
 10
-0.4317535079449412
 20
-2.614591537564825
 30
0.0
  0
SPLINE
  5
9A
330
1F
100
AcDbEntity
  8
0
  6
Continuous
 62
     7
370
    25
100
AcDbSpline
210
0.0
220
0.0
230
1.0
 70
    24
 71
     3
 72
     8
 73
     4
 74
     0
 42
0.00000001
 43
0.00000001
 40
0.0000000000000197
 40
0.0000000000000197
 40
0.0000000000000197
 40
0.0000000000000197
 40
0.0005970756765181
 40
0.0005970756765181
 40
0.0005970756765181
 40
0.0005970756765181
 10
-0.2320332969055366
 20
-2.639822067688559
 30
0.0
 10
-0.1750494673148362
 20
-2.777393201922386
 30
0.0
 10
-0.1185634264480531
 20
-2.913762567867736
 30
0.0
 10
-0.0623964331550497
 20
-3.049361684833425
 30
0.0
  0
SPLINE
  5
9B
330
1F
100
AcDbEntity
  8
0
  6
Continuous
 62
     7
370
    25
100
AcDbSpline
210
0.0
220
0.0
230
1.0
 70
    24
 71
     3
 72
     8
 73
     4
 74
     0
 42
0.00000001
 43
0.00000001
 40
0.0000000000000119
 40
0.0000000000000119
 40
0.0000000000000119
 40
0.0000000000000119
 40
0.0005970756766052
 40
0.0005970756766052
 40
0.0005970756766052
 40
0.0005970756766052
 10
-0.0623964331127207
 20
-3.049361684910225
 30
0.0
 10
-0.1185634264102015
 20
-2.913762567933727
 30
0.0
 10
-0.1750494672886533
 20
-2.777393201985598
 30
0.0
 10
-0.2320332968839315
 20
-2.639822067740718
 30
0.0
  0
SPLINE
  5
9C
330
1F
100
AcDbEntity
  8
0
  6
Continuous
 62
     7
370
    25
100
AcDbSpline
210
0.0
220
0.0
230
1.0
 70
    24
 71
     3
 72
     8
 73
     4
 74
     0
 42
0.00000001
 43
0.00000001
 40
0.0000000000000134
 40
0.0000000000000134
 40
0.0000000000000134
 40
0.0000000000000134
 40
0.0005970756765412
 40
0.0005970756765412
 40
0.0005970756765412
 40
0.0005970756765412
 10
0.0623964331563779
 20
-3.049361684834992
 30
0.0
 10
0.1185634264493865
 20
-2.913762567869296
 30
0.0
 10
0.175049467314798
 20
-2.777393201922387
 30
0.0
 10
0.2320332969054986
 20
-2.639822067688564
 30
0.0
  0
SPLINE
  5
9D
330
1F
100
AcDbEntity
  8
0
  6
Continuous
 62
     7
370
    25
100
AcDbSpline
210
0.0
220
0.0
230
1.0
 70
    24
 71
     3
 72
     8
 73
     4
 74
     0
 42
0.00000001
 43
0.00000001
 40
0.0000000000000197
 40
0.0000000000000197
 40
0.0000000000000197
 40
0.0000000000000197
 40
0.0005970756765181
 40
0.0005970756765181
 40
0.0005970756765181
 40
0.0005970756765181
 10
0.431753507944898
 20
-2.614591537564832
 30
0.0
 10
0.5211596355928254
 20
-2.733669319489951
 30
0.0
 10
0.6097847458449072
 20
-2.851706883908855
 30
0.0
 10
0.6979092788575861
 20
-2.969077742041307
 30
0.0
  0
SPLINE
  5
9E
330
1F
100
AcDbEntity
  8
0
  6
Continuous
 62
     7
370
    25
100
AcDbSpline
210
0.0
220
0.0
230
1.0
 70
    24
 71
     3
 72
     8
 73
     4
 74
     0
 42
0.00000001
 43
0.00000001
 40
0.0000000000000119
 40
0.0000000000000119
 40
0.0000000000000119
 40
0.0000000000000119
 40
0.0005970756766052
 40
0.0005970756766052
 40
0.0005970756766052
 40
0.0005970756766052
 10
0.6979092789176842
 20
-2.969077742105169
 30
0.0
 10
0.6097847458979803
 20
-2.851706883963361
 30
0.0
 10
0.5211596356339058
 20
-2.733669319544665
 30
0.0
 10
0.4317535079787959
 20
-2.61459153760998
 30
0.0
  0
SPLINE
  5
9F
330
1F
100
AcDbEntity
  8
0
  6
Continuous
 62
     7
370
    25
100
AcDbSpline
210
0.0
220
0.0
230
1.0
 70
    24
 71
     3
 72
     8
 73
     4
 74
     0
 42
0.00000001
 43
0.00000001
 40
0.0000000000000134
 40
0.0000000000000134
 40
0.0000000000000134
 40
0.0000000000000134
 40
0.0005970756765412
 40
0.0005970756765412
 40
0.0005970756765412
 40
0.0005970756765412
 10
0.8187815477962013
 20
-2.938043018200855
 30
0.0
 10
0.8394618226131814
 20
-2.792735833619543
 30
0.0
 10
0.8602595684041634
 20
-2.64660325494037
 30
0.0
 10
0.881240596352589
 20
-2.499182868712989
 30
0.0
  0
SPLINE
  5
A0
330
1F
100
AcDbEntity
  8
0
  6
Continuous
 62
     7
370
    25
100
AcDbSpline
210
0.0
220
0.0
230
1.0
 70
    24
 71
     3
 72
     8
 73
     4
 74
     0
 42
0.00000001
 43
0.00000001
 40
0.0000000000000197
 40
0.0000000000000197
 40
0.0000000000000197
 40
0.0000000000000197
 40
0.0005970756765181
 40
0.0005970756765181
 40
0.0005970756765181
 40
0.0005970756765181
 10
1.068411652012829
 20
-2.425076605340866
 30
0.0
 10
1.184622361905127
 20
-2.518178939981472
 30
0.0
 10
1.299817899925012
 20
-2.610467968589695
 30
0.0
 10
1.414362784148818
 20
-2.702235725212626
 30
0.0
  0
SPLINE
  5
A1
330
1F
100
AcDbEntity
  8
0
  6
Continuous
 62
     7
370
    25
100
AcDbSpline
210
0.0
220
0.0
230
1.0
 70
    24
 71
     3
 72
     8
 73
     4
 74
     0
 42
0.00000001
 43
0.00000001
 40
0.0000000000000119
 40
0.0000000000000119
 40
0.0000000000000119
 40
0.0000000000000119
 40
0.0005970756766052
 40
0.0005970756766052
 40
0.0005970756766052
 40
0.0005970756766052
 10
1.414362784222909
 20
-2.702235725259535
 30
0.0
 10
1.299817899989973
 20
-2.610467968629289
 30
0.0
 10
1.184622361958523
 20
-2.518178940024252
 30
0.0
 10
1.06841165205689
 20
-2.425076605376165
 30
0.0
  0
SPLINE
  5
A2
330
1F
100
AcDbEntity
  8
0
  6
Continuous
 62
     7
370
    25
100
AcDbSpline
210
0.0
220
0.0
230
1.0
 70
    24
 71
     3
 72
     8
 73
     4
 74
     0
 42
0.00000001
 43
0.00000001
 40
0.0000000000000134
 40
0.0000000000000134
 40
0.0000000000000134
 40
0.0000000000000134
 40
0.0005970756765412
 40
0.0005970756765412
 40
0.0005970756765412
 40
0.0005970756765412
 10
1.5237196065201
 20
-2.642116303366787
 30
0.0
 10
1.50761374513757
 20
-2.496231235979544
 30
0.0
 10
1.491416396997315
 20
-2.349517491924548
 30
0.0
 10
1.475076308154642
 20
-2.201510818744531
 30
0.0
  0
SPLINE
  5
A3
330
1F
100
AcDbEntity
  8
0
  6
Continuous
 62
     7
370
    25
100
AcDbSpline
210
0.0
220
0.0
230
1.0
 70
    24
 71
     3
 72
     8
 73
     4
 74
     0
 42
0.00000001
 43
0.00000001
 40
0.0000000000000197
 40
0.0000000000000197
 40
0.0000000000000197
 40
0.0000000000000197
 40
0.0005970756765181
 40
0.0005970756765181
 40
0.0005970756765181
 40
0.0005970756765181
 10
1.637937562641599
 20
-2.083185191195457
 30
0.0
 10
1.77365090848264
 20
-2.144462116459648
 30
0.0
 10
1.908178714956988
 20
-2.205203750174432
 30
0.0
 10
2.041946674049523
 20
-2.265602299641023
 30
0.0
  0
SPLINE
  5
A4
330
1F
100
AcDbEntity
  8
0
  6
Continuous
 62
     7
370
    25
100
AcDbSpline
210
0.0
220
0.0
230
1.0
 70
    24
 71
     3
 72
     8
 73
     4
 74
     0
 42
0.00000001
 43
0.00000001
 40
0.0000000000000119
 40
0.0000000000000119
 40
0.0000000000000119
 40
0.0000000000000119
 40
0.0005970756766052
 40
0.0005970756766052
 40
0.0005970756766052
 40
0.0005970756766052
 10
2.041946674132953
 20
-2.265602299668033
 30
0.0
 10
1.908178715029754
 20
-2.205203750196626
 30
0.0
 10
1.773650908544998
 20
-2.144462116487804
 30
0.0
 10
1.637937562693053
 20
-2.083185191218689
 30
0.0
  0
SPLINE
  5
A5
330
1F
100
AcDbEntity
  8
0
  6
Continuous
 62
     7
370
    25
100
AcDbSpline
210
0.0
220
0.0
230
1.0
 70
    24
 71
     3
 72
     8
 73
     4
 74
     0
 42
0.00000001
 43
0.00000001
 40
0.0000000000000134
 40
0.0000000000000134
 40
0.0000000000000134
 40
0.0000000000000134
 40
0.0005970756765412
 40
0.0005970756765412
 40
0.0005970756765412
 40
0.0005970756765412
 10
2.132916758517627
 20
-2.180175704168129
 30
0.0
 10
2.081036751439465
 20
-2.042879249286646
 30
0.0
 10
2.028862048321307
 20
-1.904802903970212
 30
0.0
 10
1.976227550564165
 20
-1.765509747443929
 30
0.0
  0
SPLINE
  5
A6
330
1F
100
AcDbEntity
  8
0
  6
Continuous
 62
     7
370
    25
100
AcDbSpline
210
0.0
220
0.0
230
1.0
 70
    24
 71
     3
 72
     8
 73
     4
 74
     0
 42
0.00000001
 43
0.00000001
 40
0.0000000000000197
 40
0.0000000000000197
 40
0.0000000000000197
 40
0.0000000000000197
 40
0.0005970756765181
 40
0.0005970756765181
 40
0.0005970756765181
 40
0.0005970756765181
 10
2.104545832296625
 20
-1.610399590068022
 30
0.0
 10
2.251234445448446
 20
-1.636000851380683
 30
0.0
 10
2.396641643537809
 20
-1.661378469963624
 30
0.0
 10
2.541227544665151
 20
-1.686612749280564
 30
0.0
  0
SPLINE
  5
A7
330
1F
100
AcDbEntity
  8
0
  6
Continuous
 62
     7
370
    25
100
AcDbSpline
210
0.0
220
0.0
230
1.0
 70
    24
 71
     3
 72
     8
 73
     4
 74
     0
 42
0.00000001
 43
0.00000001
 40
0.0000000000000119
 40
0.0000000000000119
 40
0.0000000000000119
 40
0.0000000000000119
 40
0.0005970756766052
 40
0.0005970756766052
 40
0.0005970756766052
 40
0.0005970756766052
 10
2.541227544752676
 20
-1.686612749285976
 30
0.0
 10
2.396641643613809
 20
-1.661378469967025
 30
0.0
 10
2.251234445515847
 20
-1.636000851392446
 30
0.0
 10
2.104545832352241
 20
-1.610399590077729
 30
0.0
  0
SPLINE
  5
A8
330
1F
100
AcDbEntity
  8
0
  6
Continuous
 62
     7
370
    25
100
AcDbSpline
210
0.0
220
0.0
230
1.0
 70
    24
 71
     3
 72
     8
 73
     4
 74
     0
 42
0.00000001
 43
0.00000001
 40
0.0000000000000134
 40
0.0000000000000134
 40
0.0000000000000134
 40
0.0000000000000134
 40
0.0005970756765412
 40
0.0005970756765412
 40
0.0005970756765412
 40
0.0005970756765412
 10
2.608094906258365
 20
-1.581246647351232
 30
0.0
 10
2.523700565130614
 20
-1.46116564617675
 30
0.0
 10
2.4388268355166
 20
-1.340402544184385
 30
0.0
 10
2.353205147915212
 20
-1.218575205620775
 30
0.0
  0
SPLINE
  5
A9
330
1F
100
AcDbEntity
  8
0
  6
Continuous
 62
     7
370
    25
100
AcDbSpline
210
0.0
220
0.0
230
1.0
 70
    24
 71
     3
 72
     8
 73
     4
 74
     0
 42
0.00000001
 43
0.00000001
 40
0.0000000000000197
 40
0.0000000000000197
 40
0.0000000000000197
 40
0.0000000000000197
 40
0.0005970756765181
 40
0.0005970756765181
 40
0.0005970756765181
 40
0.0005970756765181
 10
2.438917747330293
 20
-1.036426660061232
 30
0.0
 10
2.587364642745582
 20
-1.024743636019233
 30
0.0
 10
2.734514763423739
 20
-1.013162670362414
 30
0.0
 10
2.880833742668307
 20
-1.001647116955031
 30
0.0
  0
SPLINE
  5
AA
330
1F
100
AcDbEntity
  8
0
  6
Continuous
 62
     7
370
    25
100
AcDbSpline
210
0.0
220
0.0
230
1.0
 70
    24
 71
     3
 72
     8
 73
     4
 74
     0
 42
0.00000001
 43
0.00000001
 40
0.0000000000000119
 40
0.0000000000000119
 40
0.0000000000000119
 40
0.0000000000000119
 40
0.0005970756766052
 40
0.0005970756766052
 40
0.0005970756766052
 40
0.0005970756766052
 10
2.880833742754432
 20
-1.001647116938505
 30
0.0
 10
2.7345147634982
 20
-1.013162670346806
 30
0.0
 10
2.587364642813793
 20
-1.024743636013865
 30
0.0
 10
2.438917747386578
 20
-1.036426660056802
 30
0.0
  0
SPLINE
  5
AB
330
1F
100
AcDbEntity
  8
0
  6
Continuous
 62
     7
370
    25
100
AcDbSpline
210
0.0
220
0.0
230
1.0
 70
    24
 71
     3
 72
     8
 73
     4
 74
     0
 42
0.00000001
 43
0.00000001
 40
0.0000000000000134
 40
0.0000000000000134
 40
0.0000000000000134
 40
0.0000000000000134
 40
0.0005970756765412
 40
0.0005970756765412
 40
0.0005970756765412
 40
0.0005970756765412
 10
2.919396859136794
 20
-0.8829620482628769
 30
0.0
 10
2.807790990793182
 20
-0.7876416317262181
 30
0.0
 10
2.695551163258704
 20
-0.6917797628917229
 30
0.0
 10
2.582322211339603
 20
-0.5950731020223458
 30
0.0
  0
SPLINE
  5
AC
330
1F
100
AcDbEntity
  8
0
  6
Continuous
 62
     7
370
    25
100
AcDbSpline
210
0.0
220
0.0
230
1.0
 70
    24
 71
     3
 72
     8
 73
     4
 74
     0
 42
0.00000001
 43
0.00000001
 40
0.0000000000000175
 40
0.0000000000000175
 40
0.0000000000000175
 40
0.0000000000000175
 40
0.0005970756765674
 40
0.0005970756765674
 40
0.0005970756765674
 40
0.0005970756765674
 10
2.620043490628587
 20
-0.3973312312779803
 30
0.0
 10
2.760921203934527
 20
-0.3490980092436912
 30
0.0
 10
2.900568263954626
 20
-0.3012861340057849
 30
0.0
 10
3.039426561742608
 20
-0.253744312440537
 30
0.0
  0
SPLINE
  5
AD
330
1F
100
AcDbEntity
  8
0
  6
Continuous
 62
     7
370
    25
100
AcDbSpline
210
0.0
220
0.0
230
1.0
 70
    24
 71
     3
 72
     8
 73
     4
 74
     0
 42
0.00000001
 43
0.00000001
 40
0.0000000000000119
 40
0.0000000000000119
 40
0.0000000000000119
 40
0.0000000000000119
 40
0.0005970756766052
 40
0.0005970756766052
 40
0.0005970756766052
 40
0.0005970756766052
 10
3.039426561733551
 20
-0.2537443124333679
 30
0.0
 10
2.900568263950186
 20
-0.3012861339970352
 30
0.0
 10
2.760921203942224
 20
-0.349098009241056
 30
0.0
 10
2.620043490640584
 20
-0.397331231273873
 30
0.0
  0
CIRCLE
  5
AE
330
1F
100
AcDbEntity
  8
0
  6
Continuous
 62
     7
370
    25
100
AcDbCircle
 10
0.0
 20
0.0
 30
0.0
 40
1.899999999920965
  0
ARC
  5
AF
330
1F
100
AcDbEntity
  8
0
  6
Continuous
 62
     7
370
    25
100
AcDbCircle
 10
0.0
 20
0.0
 30
0.0
 40
2.650000000008458
100
AcDbArc
 50
73.4232358634
 51
63.3767641367
  0
ARC
  5
B0
330
1F
100
AcDbEntity
  8
0
  6
Continuous
 62
     7
370
    25
100
AcDbCircle
 10
0.0
 20
0.0
 30
0.0
 40
2.650000000008458
100
AcDbArc
 50
63.3767641367
 51
73.4232358634
  0
MTEXT
  5
B2
330
1F
100
AcDbEntity
  8
0
  6
Continuous
 62
     7
100
AcDbMText
 10
-3.0472623706
 20
-4.0689280766
 30
0.0
 40
4.83362
 41
0.0
 71
     1
 72
     1
  1
SOLIDWORKS Educational Product.
  7
SLDTEXTSTYLE0
 73
     1
 44
1.0
  0
MTEXT
  5
B3
330
1F
100
AcDbEntity
  8
0
  6
Continuous
 62
     7
100
AcDbMText
 10
-3.0472623706
 20
-11.3193580766
 30
0.0
 40
4.83362
 41
0.0
 71
     1
 72
     1
  1
For Instructional Use Only.
  7
SLDTEXTSTYLE0
 73
     1
 44
1.0
  0
ENDSEC
  0
SECTION
  2
OBJECTS
  0
DICTIONARY
  5
C
330
0
100
AcDbDictionary
281
     1
  3
ACAD_GROUP
350
D
  3
ACAD_LAYOUT
350
1A
  3
ACAD_MLINESTYLE
350
17
  3
ACAD_PLOTSETTINGS
350
19
  3
ACAD_PLOTSTYLENAME
350
E
  3
ACAD_SCALELIST
350
47
  3
DWGPROPS
350
B4
  0
DICTIONARY
  5
D
102
{ACAD_REACTORS
330
C
102
}
330
C
100
AcDbDictionary
281
     1
  0
DICTIONARY
  5
1A
102
{ACAD_REACTORS
330
C
102
}
330
C
100
AcDbDictionary
281
     1
  3
Layout1
350
1E
  3
Layout2
350
26
  3
Model
350
22
  0
DICTIONARY
  5
17
102
{ACAD_REACTORS
330
C
102
}
330
C
100
AcDbDictionary
281
     1
  3
Standard
350
18
  0
DICTIONARY
  5
19
102
{ACAD_REACTORS
330
C
102
}
330
C
100
AcDbDictionary
281
     1
  0
ACDBDICTIONARYWDFLT
  5
E
102
{ACAD_REACTORS
330
C
102
}
330
C
100
AcDbDictionary
281
     1
  3
Normal
350
F
100
AcDbDictionaryWithDefault
340
F
  0
DICTIONARY
  5
47
102
{ACAD_REACTORS
330
C
102
}
330
C
100
AcDbDictionary
281
     1
  3
A0
350
48
  3
A1
350
49
  3
A2
350
4A
  3
A3
350
4B
  3
A4
350
4C
  3
A5
350
4D
  3
A6
350
4E
  3
A7
350
4F
  3
A8
350
50
  3
A9
350
51
  3
B0
350
52
  3
B1
350
53
  3
B2
350
54
  3
B3
350
55
  3
B4
350
56
  3
B5
350
57
  3
B6
350
58
  0
XRECORD
  5
B4
102
{ACAD_REACTORS
330
C
102
}
330
C
100
AcDbXrecord
280
     1
  1
DWGPROPS COOKIE
  2

  3

  4

  6

  7

  8
tonyj
  9

300
=
301
=
302
=
303
=
304
=
305
=
306
=
307
=
308
=
309
=
 40
0.0
 41
2460462.138592651
 42
2460462.138641945
  1

 90
        0
  0
LAYOUT
  5
1E
102
{ACAD_REACTORS
330
1A
102
}
330
1A
100
AcDbPlotSettings
  1

  2
none_device
  4

  6

 40
0.0
 41
0.0
 42
0.0
 43
0.0
 44
0.0
 45
0.0
 46
0.0
 47
0.0
 48
0.0
 49
0.0
140
0.0
141
0.0
142
1.0
143
1.0
 70
   688
 72
     1
 73
     0
 74
     5
  7

 75
    16
147
1.0
148
0.0
149
0.0
100
AcDbLayout
  1
Layout1
 70
     1
 71
     1
 10
0.0
 20
0.0
 11
420.0
 21
297.0
 12
0.0
 22
0.0
 32
0.0
 14
1.0000000000E+20
 24
1.0000000000E+20
 34
1.0000000000E+20
 15
-1.0000000000E+20
 25
-1.0000000000E+20
 35
-1.0000000000E+20
146
0.0
 13
0.0
 23
0.0
 33
0.0
 16
1.0
 26
0.0
 36
0.0
 17
0.0
 27
1.0
 37
0.0
 76
     0
330
1B
  0
LAYOUT
  5
26
102
{ACAD_REACTORS
330
1A
102
}
330
1A
100
AcDbPlotSettings
  1

  2
none_device
  4

  6

 40
0.0
 41
0.0
 42
0.0
 43
0.0
 44
0.0
 45
0.0
 46
0.0
 47
0.0
 48
0.0
 49
0.0
140
0.0
141
0.0
142
1.0
143
1.0
 70
   688
 72
     1
 73
     0
 74
     5
  7

 75
    16
147
1.0
148
0.0
149
0.0
100
AcDbLayout
  1
Layout2
 70
     1
 71
     2
 10
0.0
 20
0.0
 11
0.0
 21
0.0
 12
0.0
 22
0.0
 32
0.0
 14
0.0
 24
0.0
 34
0.0
 15
0.0
 25
0.0
 35
0.0
146
0.0
 13
0.0
 23
0.0
 33
0.0
 16
1.0
 26
0.0
 36
0.0
 17
0.0
 27
1.0
 37
0.0
 76
     0
330
23
  0
LAYOUT
  5
22
102
{ACAD_REACTORS
330
1A
102
}
330
1A
100
AcDbPlotSettings
  1

  2
none_device
  4
ANSI_A_(11.00_x_8.50_Inches)
  6

 40
6.35
 41
19.05
 42
6.35000508
 43
19.05000254
 44
279.4
 45
215.9
 46
133.3499974589
 47
89.1850707981
 48
0.0
 49
0.0
140
0.0
141
0.0
142
1.3834775096
143
1.0
 70
  1696
 72
     0
 73
     0
 74
     0
  7

 75
     0
147
0.0179189148
148
-1300.4909072572
149
0.0
100
AcDbLayout
  1
Model
 70
     1
 71
     0
 10
0.0
 20
0.0
 11
420.0
 21
297.0
 12
0.0
 22
0.0
 32
0.0
 14
-3.0472623706
 24
-3.0493616849
 34
0.0
 15
3.0472623706
 25
3.033136904
 35
0.0
146
0.0
 13
0.0
 23
0.0
 33
0.0
 16
1.0
 26
0.0
 36
0.0
 17
0.0
 27
1.0
 37
0.0
 76
     0
330
1F
331
29
  0
MLINESTYLE
  5
18
102
{ACAD_REACTORS
330
17
102
}
330
17
100
AcDbMlineStyle
  2
Standard
 70
     0
  3

 62
   256
 51
90.0
 52
90.0
 71
     2
 49
0.5
 62
   256
  6
BYLAYER
 49
-0.5
 62
   256
  6
BYLAYER
  0
ACDBPLACEHOLDER
  5
F
102
{ACAD_REACTORS
330
E
102
}
330
E
  0
SCALE
  5
48
102
{ACAD_REACTORS
330
47
102
}
330
47
100
AcDbScale
 70
     0
300
1:1
140
1.0
141
1.0
290
     1
  0
SCALE
  5
49
102
{ACAD_REACTORS
330
47
102
}
330
47
100
AcDbScale
 70
     0
300
1:2
140
1.0
141
2.0
290
     0
  0
SCALE
  5
4A
102
{ACAD_REACTORS
330
47
102
}
330
47
100
AcDbScale
 70
     0
300
1:4
140
1.0
141
4.0
290
     0
  0
SCALE
  5
4B
102
{ACAD_REACTORS
330
47
102
}
330
47
100
AcDbScale
 70
     0
300
1:5
140
1.0
141
5.0
290
     0
  0
SCALE
  5
4C
102
{ACAD_REACTORS
330
47
102
}
330
47
100
AcDbScale
 70
     0
300
1:8
140
1.0
141
8.0
290
     0
  0
SCALE
  5
4D
102
{ACAD_REACTORS
330
47
102
}
330
47
100
AcDbScale
 70
     0
300
1:10
140
1.0
141
10.0
290
     0
  0
SCALE
  5
4E
102
{ACAD_REACTORS
330
47
102
}
330
47
100
AcDbScale
 70
     0
300
1:16
140
1.0
141
16.0
290
     0
  0
SCALE
  5
4F
102
{ACAD_REACTORS
330
47
102
}
330
47
100
AcDbScale
 70
     0
300
1:20
140
1.0
141
20.0
290
     0
  0
SCALE
  5
50
102
{ACAD_REACTORS
330
47
102
}
330
47
100
AcDbScale
 70
     0
300
1:30
140
1.0
141
30.0
290
     0
  0
SCALE
  5
51
102
{ACAD_REACTORS
330
47
102
}
330
47
100
AcDbScale
 70
     0
300
1:40
140
1.0
141
40.0
290
     0
  0
SCALE
  5
52
102
{ACAD_REACTORS
330
47
102
}
330
47
100
AcDbScale
 70
     0
300
1:50
140
1.0
141
50.0
290
     0
  0
SCALE
  5
53
102
{ACAD_REACTORS
330
47
102
}
330
47
100
AcDbScale
 70
     0
300
1:100
140
1.0
141
100.0
290
     0
  0
SCALE
  5
54
102
{ACAD_REACTORS
330
47
102
}
330
47
100
AcDbScale
 70
     0
300
2:1
140
2.0
141
1.0
290
     0
  0
SCALE
  5
55
102
{ACAD_REACTORS
330
47
102
}
330
47
100
AcDbScale
 70
     0
300
4:1
140
4.0
141
1.0
290
     0
  0
SCALE
  5
56
102
{ACAD_REACTORS
330
47
102
}
330
47
100
AcDbScale
 70
     0
300
8:1
140
8.0
141
1.0
290
     0
  0
SCALE
  5
57
102
{ACAD_REACTORS
330
47
102
}
330
47
100
AcDbScale
 70
     0
300
10:1
140
10.0
141
1.0
290
     0
  0
SCALE
  5
58
102
{ACAD_REACTORS
330
47
102
}
330
47
100
AcDbScale
 70
     0
300
100:1
140
100.0
141
1.0
290
     0
  0
ENDSEC
  0
EOF
