  0
SECTION
  2
HEADER
  9
$ACADVER
  1
AC1015
  9
$ACADMAINTVER
 70
     6
  9
$DWGCODEPAGE
  3
ANSI_1252
  9
$INSBASE
 10
0.0
 20
0.0
 30
0.0
  9
$EXTMIN
 10
-7.2198654701
 20
-7.2198654701
 30
0.0
  9
$EXTMAX
 10
7.2198654701
 20
7.2198654701
 30
0.0
  9
$LIMMIN
 10
0.0
 20
0.0
  9
$LIMMAX
 10
420.0
 20
297.0
  9
$ORTHOMODE
 70
     0
  9
$REGENMODE
 70
     1
  9
$FILLMODE
 70
     1
  9
$QTEXTMODE
 70
     0
  9
$MIRRTEXT
 70
     1
  9
$LTSCALE
 40
1.0
  9
$ATTMODE
 70
     1
  9
$TEXTSIZE
 40
3.5
  9
$TRACEWID
 40
1.0
  9
$TEXTSTYLE
  7
Standard
  9
$CLAYER
  8
0
  9
$CELTYPE
  6
ByLayer
  9
$CECOLOR
 62
   256
  9
$CELTSCALE
 40
1.0
  9
$DISPSILH
 70
     0
  9
$DIMSCALE
 40
1.0
  9
$DIMASZ
 40
3.556
  9
$DIMEXO
 40
0.0
  9
$DIMDLI
 40
3.75
  9
$DIMRND
 40
0.0
  9
$DIMDLE
 40
0.0
  9
$DIMEXE
 40
1.0
  9
$DIMTP
 40
0.0
  9
$DIMTM
 40
0.0
  9
$DIMTXT
 40
3.5
  9
$DIMCEN
 40
2.5
  9
$DIMTSZ
 40
0.0
  9
$DIMTOL
 70
     0
  9
$DIMLIM
 70
     0
  9
$DIMTIH
 70
     1
  9
$DIMTOH
 70
     1
  9
$DIMSE1
 70
     0
  9
$DIMSE2
 70
     0
  9
$DIMTAD
 70
     1
  9
$DIMZIN
 70
     1
  9
$DIMBLK
  1

  9
$DIMASO
 70
     1
  9
$DIMSHO
 70
     1
  9
$DIMPOST
  1

  9
$DIMAPOST
  1

  9
$DIMALT
 70
     0
  9
$DIMALTD
 70
     3
  9
$DIMALTF
 40
0.0393700787
  9
$DIMLFAC
 40
1.0
  9
$DIMTOFL
 70
     1
  9
$DIMTVP
 40
0.0
  9
$DIMTIX
 70
     0
  9
$DIMSOXD
 70
     0
  9
$DIMSAH
 70
     0
  9
$DIMBLK1
  1

  9
$DIMBLK2
  1

  9
$DIMSTYLE
  2
ISO-25
  9
$DIMCLRD
 70
     0
  9
$DIMCLRE
 70
     0
  9
$DIMCLRT
 70
     0
  9
$DIMTFAC
 40
1.0
  9
$DIMGAP
 40
1.524
  9
$DIMJUST
 70
     0
  9
$DIMSD1
 70
     0
  9
$DIMSD2
 70
     0
  9
$DIMTOLJ
 70
     0
  9
$DIMTZIN
 70
     1
  9
$DIMALTZ
 70
     0
  9
$DIMALTTZ
 70
     0
  9
$DIMUPT
 70
     0
  9
$DIMDEC
 70
     2
  9
$DIMTDEC
 70
     2
  9
$DIMALTU
 70
     2
  9
$DIMALTTD
 70
     3
  9
$DIMTXSTY
  7
Standard
  9
$DIMAUNIT
 70
     0
  9
$DIMADEC
 70
     2
  9
$DIMALTRND
 40
0.0
  9
$DIMAZIN
 70
     0
  9
$DIMDSEP
 70
    44
  9
$DIMATFIT
 70
     3
  9
$DIMFRAC
 70
     0
  9
$DIMLDRBLK
  1

  9
$DIMLUNIT
 70
     2
  9
$DIMLWD
 70
    -2
  9
$DIMLWE
 70
    -2
  9
$DIMTMOVE
 70
     0
  9
$LUNITS
 70
     2
  9
$LUPREC
 70
     2
  9
$SKETCHINC
 40
1.0
  9
$FILLETRAD
 40
0.0
  9
$AUNITS
 70
     0
  9
$AUPREC
 70
     2
  9
$MENU
  1
.
  9
$ELEVATION
 40
0.0
  9
$PELEVATION
 40
0.0
  9
$THICKNESS
 40
0.0
  9
$LIMCHECK
 70
     0
  9
$CHAMFERA
 40
0.0
  9
$CHAMFERB
 40
0.0
  9
$CHAMFERC
 40
0.0
  9
$CHAMFERD
 40
0.0
  9
$SKPOLY
 70
     0
  9
$TDCREATE
 40
2460449.725152014
  9
$TDUCREATE
 40
2460450.016818681
  9
$TDUPDATE
 40
2460449.725191979
  9
$TDUUPDATE
 40
2460450.016858646
  9
$TDINDWG
 40
0.0000000116
  9
$TDUSRTIMER
 40
0.0000000116
  9
$USRTIMER
 70
     1
  9
$ANGBASE
 50
0.0
  9
$ANGDIR
 70
     0
  9
$PDMODE
 70
     0
  9
$PDSIZE
 40
-1.0
  9
$PLINEWID
 40
0.0
  9
$SPLFRAME
 70
     0
  9
$SPLINETYPE
 70
     6
  9
$SPLINESEGS
 70
     8
  9
$HANDSEED
  5
9F
  9
$SURFTAB1
 70
     6
  9
$SURFTAB2
 70
     6
  9
$SURFTYPE
 70
     6
  9
$SURFU
 70
     6
  9
$SURFV
 70
     6
  9
$UCSBASE
  2

  9
$UCSNAME
  2

  9
$UCSORG
 10
0.0
 20
0.0
 30
0.0
  9
$UCSXDIR
 10
1.0
 20
0.0
 30
0.0
  9
$UCSYDIR
 10
0.0
 20
1.0
 30
0.0
  9
$UCSORTHOREF
  2

  9
$UCSORTHOVIEW
 70
     0
  9
$UCSORGTOP
 10
0.0
 20
0.0
 30
0.0
  9
$UCSORGBOTTOM
 10
0.0
 20
0.0
 30
0.0
  9
$UCSORGLEFT
 10
0.0
 20
0.0
 30
0.0
  9
$UCSORGRIGHT
 10
0.0
 20
0.0
 30
0.0
  9
$UCSORGFRONT
 10
0.0
 20
0.0
 30
0.0
  9
$UCSORGBACK
 10
0.0
 20
0.0
 30
0.0
  9
$PUCSBASE
  2

  9
$PUCSNAME
  2

  9
$PUCSORG
 10
0.0
 20
0.0
 30
0.0
  9
$PUCSXDIR
 10
1.0
 20
0.0
 30
0.0
  9
$PUCSYDIR
 10
0.0
 20
1.0
 30
0.0
  9
$PUCSORTHOREF
  2

  9
$PUCSORTHOVIEW
 70
     0
  9
$PUCSORGTOP
 10
0.0
 20
0.0
 30
0.0
  9
$PUCSORGBOTTOM
 10
0.0
 20
0.0
 30
0.0
  9
$PUCSORGLEFT
 10
0.0
 20
0.0
 30
0.0
  9
$PUCSORGRIGHT
 10
0.0
 20
0.0
 30
0.0
  9
$PUCSORGFRONT
 10
0.0
 20
0.0
 30
0.0
  9
$PUCSORGBACK
 10
0.0
 20
0.0
 30
0.0
  9
$USERI1
 70
     0
  9
$USERI2
 70
     0
  9
$USERI3
 70
     0
  9
$USERI4
 70
     0
  9
$USERI5
 70
     0
  9
$USERR1
 40
0.0
  9
$USERR2
 40
0.0
  9
$USERR3
 40
0.0
  9
$USERR4
 40
0.0
  9
$USERR5
 40
0.0
  9
$WORLDVIEW
 70
     1
  9
$SHADEDGE
 70
     3
  9
$SHADEDIF
 70
    70
  9
$TILEMODE
 70
     1
  9
$MAXACTVP
 70
    64
  9
$PINSBASE
 10
0.0
 20
0.0
 30
0.0
  9
$PLIMCHECK
 70
     0
  9
$PEXTMIN
 10
1.0000000000E+20
 20
1.0000000000E+20
 30
1.0000000000E+20
  9
$PEXTMAX
 10
-1.0000000000E+20
 20
-1.0000000000E+20
 30
-1.0000000000E+20
  9
$PLIMMIN
 10
0.0
 20
0.0
  9
$PLIMMAX
 10
420.0
 20
297.0
  9
$UNITMODE
 70
     0
  9
$VISRETAIN
 70
     1
  9
$PLINEGEN
 70
     0
  9
$PSLTSCALE
 70
     1
  9
$TREEDEPTH
 70
  3020
  9
$CMLSTYLE
  2
Standard
  9
$CMLJUST
 70
     0
  9
$CMLSCALE
 40
20.0
  9
$PROXYGRAPHICS
 70
     1
  9
$MEASUREMENT
 70
     1
  9
$CELWEIGHT
370
    -1
  9
$ENDCAPS
280
     0
  9
$JOINSTYLE
280
     0
  9
$LWDISPLAY
290
     1
  9
$INSUNITS
 70
     4
  9
$HYPERLINKBASE
  1

  9
$STYLESHEET
  1

  9
$XEDIT
290
     1
  9
$CEPSNTYPE
380
     0
  9
$PSTYLEMODE
290
     1
  9
$FINGERPRINTGUID
  2
{59cf9ba4-522a-4b35-9f52-1b6e706d30e4}
  9
$VERSIONGUID
  2
{FAEB1C32-E019-11D5-929B-00C0DF256EC4}
  9
$EXTNAMES
290
     1
  9
$PSVPSCALE
 40
0.0
  9
$OLESTARTUP
290
     0
  0
ENDSEC
  0
SECTION
  2
CLASSES
  0
CLASS
  1
ACDBDICTIONARYWDFLT
  2
AcDbDictionaryWithDefault
  3
ObjectDBX Classes
 90
        0
280
     0
281
     0
  0
CLASS
  1
VISUALSTYLE
  2
AcDbVisualStyle
  3
ObjectDBX Classes
 90
     4095
280
     0
281
     0
  0
CLASS
  1
MATERIAL
  2
AcDbMaterial
  3
ObjectDBX Classes
 90
     1153
280
     0
281
     0
  0
CLASS
  1
SCALE
  2
AcDbScale
  3
ObjectDBX Classes
 90
     1153
280
     0
281
     0
  0
CLASS
  1
TABLESTYLE
  2
AcDbTableStyle
  3
ObjectDBX Classes
 90
     4095
280
     0
281
     0
  0
CLASS
  1
MLEADERSTYLE
  2
AcDbMLeaderStyle
  3
ACDB_MLEADERSTYLE_CLASS
 90
     4095
280
     0
281
     0
  0
CLASS
  1
SUN
  2
AcDbSun
  3
SCENEOE
 90
     1153
280
     0
281
     0
  0
CLASS
  1
ACDBPLACEHOLDER
  2
AcDbPlaceHolder
  3
ObjectDBX Classes
 90
        0
280
     0
281
     0
  0
CLASS
  1
LAYOUT
  2
AcDbLayout
  3
ObjectDBX Classes
 90
        0
280
     0
281
     0
  0
ENDSEC
  0
SECTION
  2
TABLES
  0
TABLE
  2
VPORT
  5
8
330
0
100
AcDbSymbolTable
 70
     1
  0
VPORT
  5
29
330
8
100
AcDbSymbolTableRecord
100
AcDbViewportTableRecord
  2
*Active
 70
     0
 10
0.0
 20
0.0
 11
1.0
 21
1.0
 12
0.0
 22
0.0
 13
0.0
 23
0.0
 14
10.0
 24
10.0
 15
10.0
 25
10.0
 16
0.0
 26
0.0
 36
1.0
 17
0.0
 27
0.0
 37
0.0
 40
14.7285255591
 41
1.0
 42
50.0
 43
0.0
 44
0.0
 50
0.0
 51
0.0
 71
     0
 72
   100
 73
     1
 74
     3
 75
     0
 76
     0
 77
     0
 78
     0
281
     0
 65
     1
110
0.0
120
0.0
130
0.0
111
1.0
121
0.0
131
0.0
112
0.0
122
1.0
132
0.0
 79
     0
146
0.0
  0
ENDTAB
  0
TABLE
  2
LTYPE
  5
5
330
0
100
AcDbSymbolTable
 70
     6
  0
LTYPE
  5
14
330
5
100
AcDbSymbolTableRecord
100
AcDbLinetypeTableRecord
  2
ByBlock
 70
     0
  3

 72
    65
 73
     0
 40
0.0
  0
LTYPE
  5
15
330
5
100
AcDbSymbolTableRecord
100
AcDbLinetypeTableRecord
  2
ByLayer
 70
     0
  3

 72
    65
 73
     0
 40
0.0
  0
LTYPE
  5
16
330
5
100
AcDbSymbolTableRecord
100
AcDbLinetypeTableRecord
  2
Continuous
 70
     0
  3
Solid line
 72
    65
 73
     0
 40
0.0
  0
LTYPE
  5
5E
330
5
100
AcDbSymbolTableRecord
100
AcDbLinetypeTableRecord
  2
HIDDEN
 70
     0
  3
Hidden __ __ __ __ __ __ __ __ __ __ __ __ __ __
 72
    65
 73
     2
 40
1.905
 49
1.27
 74
     0
 49
-0.635
 74
     0
  0
LTYPE
  5
5F
330
5
100
AcDbSymbolTableRecord
100
AcDbLinetypeTableRecord
  2
PHANTOM
 70
     0
  3
Phantom ______  __  __  ______  __  __  ______
 72
    65
 73
     6
 40
12.7
 49
6.35
 74
     0
 49
-1.27
 74
     0
 49
1.27
 74
     0
 49
-1.27
 74
     0
 49
1.27
 74
     0
 49
-1.27
 74
     0
  0
LTYPE
  5
60
330
5
100
AcDbSymbolTableRecord
100
AcDbLinetypeTableRecord
  2
CENTER
 70
     0
  3
Center ____ _ ____ _ ____ _ ____ _ ____ _ ____
 72
    65
 73
     4
 40
10.16
 49
6.35
 74
     0
 49
-1.27
 74
     0
 49
1.27
 74
     0
 49
-1.27
 74
     0
  0
LTYPE
  5
61
330
5
100
AcDbSymbolTableRecord
100
AcDbLinetypeTableRecord
  2
CENTERX2
 70
     0
  3
Center (2x) ________  __  ________  __  _____
 72
    65
 73
     4
 40
20.32
 49
12.7
 74
     0
 49
-2.54
 74
     0
 49
2.54
 74
     0
 49
-2.54
 74
     0
  0
LTYPE
  5
62
330
5
100
AcDbSymbolTableRecord
100
AcDbLinetypeTableRecord
  2
DOT2
 70
     0
  3
Dot (.5x) ........................................
 72
    65
 73
     2
 40
0.635
 49
0.0
 74
     0
 49
-0.635
 74
     0
  0
ENDTAB
  0
TABLE
  2
LAYER
  5
2
330
0
100
AcDbSymbolTable
 70
     1
  0
LAYER
  5
10
330
2
100
AcDbSymbolTableRecord
100
AcDbLayerTableRecord
  2
0
 70
     0
 62
     7
  6
Continuous
370
    -3
390
F
  0
ENDTAB
  0
TABLE
  2
STYLE
  5
3
330
0
100
AcDbSymbolTable
 70
     2
  0
STYLE
  5
11
330
3
100
AcDbSymbolTableRecord
100
AcDbTextStyleTableRecord
  2
Standard
 70
     0
 40
0.0
 41
1.0
 50
0.0
 71
     0
 42
3.5
  3
txt
  4

  0
STYLE
  5
9B
330
3
100
AcDbSymbolTableRecord
100
AcDbTextStyleTableRecord
  2
SLDTEXTSTYLE0
 70
     0
 40
0.0
 41
0.7
 50
0.0
 71
     0
 42
3.5
  3
TXT
  4

  0
ENDTAB
  0
TABLE
  2
VIEW
  5
6
330
0
100
AcDbSymbolTable
 70
     0
  0
ENDTAB
  0
TABLE
  2
UCS
  5
7
330
0
100
AcDbSymbolTable
 70
     0
  0
ENDTAB
  0
TABLE
  2
APPID
  5
9
330
0
100
AcDbSymbolTable
 70
     1
  0
APPID
  5
12
330
9
100
AcDbSymbolTableRecord
100
AcDbRegAppTableRecord
  2
ACAD
 70
     0
  0
ENDTAB
  0
TABLE
  2
DIMSTYLE
  5
A
330
0
100
AcDbSymbolTable
 70
     1
100
AcDbDimStyleTable
  0
DIMSTYLE
105
27
330
A
100
AcDbSymbolTableRecord
100
AcDbDimStyleTableRecord
  2
ISO-25
 70
     0
 41
2.5
 42
0.625
 43
3.75
 44
1.25
 73
     0
 74
     0
 77
     1
 78
     8
140
2.5
141
2.5
143
0.0393700787
147
0.625
171
     3
172
     1
178
     0
271
     2
272
     2
274
     3
278
    44
283
     0
284
     8
340
11
  0
ENDTAB
  0
TABLE
  2
BLOCK_RECORD
  5
1
330
0
100
AcDbSymbolTable
 70
     1
  0
BLOCK_RECORD
  5
1F
330
1
100
AcDbSymbolTableRecord
100
AcDbBlockTableRecord
  2
*Model_Space
340
22
  0
BLOCK_RECORD
  5
1B
330
1
100
AcDbSymbolTableRecord
100
AcDbBlockTableRecord
  2
*Paper_Space
340
1E
  0
BLOCK_RECORD
  5
23
330
1
100
AcDbSymbolTableRecord
100
AcDbBlockTableRecord
  2
*Paper_Space0
340
26
  0
ENDTAB
  0
ENDSEC
  0
SECTION
  2
BLOCKS
  0
BLOCK
  5
20
330
1F
100
AcDbEntity
  8
0
100
AcDbBlockBegin
  2
*Model_Space
 70
     0
 10
0.0
 20
0.0
 30
0.0
  3
*Model_Space
  1

  0
ENDBLK
  5
21
330
1F
100
AcDbEntity
  8
0
100
AcDbBlockEnd
  0
BLOCK
  5
1C
330
1B
100
AcDbEntity
 67
     1
  8
0
100
AcDbBlockBegin
  2
*Paper_Space
 70
     0
 10
0.0
 20
0.0
 30
0.0
  3
*Paper_Space
  1

  0
ENDBLK
  5
1D
330
1B
100
AcDbEntity
 67
     1
  8
0
100
AcDbBlockEnd
  0
BLOCK
  5
24
330
23
100
AcDbEntity
  8
0
100
AcDbBlockBegin
  2
*Paper_Space0
 70
     0
 10
0.0
 20
0.0
 30
0.0
  3
*Paper_Space0
  1

  0
ENDBLK
  5
25
330
23
100
AcDbEntity
  8
0
100
AcDbBlockEnd
  0
ENDSEC
  0
SECTION
  2
ENTITIES
  0
ARC
  5
63
330
1F
100
AcDbEntity
  8
0
  6
Continuous
 62
     7
100
AcDbCircle
 10
0.0
 20
0.0
 30
0.0
 40
7.222044783946582
100
AcDbArc
 50
194.2647399175
 51
197.8781172254
  0
ARC
  5
64
330
1F
100
AcDbEntity
  8
0
  6
Continuous
 62
     7
100
AcDbCircle
 10
0.0
 20
0.0
 30
0.0
 40
7.222044783983754
100
AcDbArc
 50
207.1218827746
 51
210.7352600825
  0
ARC
  5
65
330
1F
100
AcDbEntity
  8
0
  6
Continuous
 62
     7
100
AcDbCircle
 10
0.0
 20
0.0
 30
0.0
 40
7.222044783953964
100
AcDbArc
 50
219.9790256316
 51
223.5924029396
  0
ARC
  5
66
330
1F
100
AcDbEntity
  8
0
  6
Continuous
 62
     7
100
AcDbCircle
 10
0.0
 20
0.0
 30
0.0
 40
7.222044783972698
100
AcDbArc
 50
232.8361684889
 51
236.4495457968
  0
ARC
  5
67
330
1F
100
AcDbEntity
  8
0
  6
Continuous
 62
     7
100
AcDbCircle
 10
0.0
 20
0.0
 30
0.0
 40
7.222044783972685
100
AcDbArc
 50
245.693311346
 51
249.3066886539
  0
ARC
  5
68
330
1F
100
AcDbEntity
  8
0
  6
Continuous
 62
     7
100
AcDbCircle
 10
0.0
 20
0.0
 30
0.0
 40
7.222044783972696
100
AcDbArc
 50
258.5504542031
 51
262.1638315111
  0
ARC
  5
69
330
1F
100
AcDbEntity
  8
0
  6
Continuous
 62
     7
100
AcDbCircle
 10
0.0
 20
0.0
 30
0.0
 40
7.222044783972692
100
AcDbArc
 50
271.4075970603
 51
275.0209743682
  0
ARC
  5
6A
330
1F
100
AcDbEntity
  8
0
  6
Continuous
 62
     7
100
AcDbCircle
 10
0.0
 20
0.0
 30
0.0
 40
7.222044783972692
100
AcDbArc
 50
284.2647399174
 51
287.8781172254
  0
ARC
  5
6B
330
1F
100
AcDbEntity
  8
0
  6
Continuous
 62
     7
100
AcDbCircle
 10
0.0
 20
0.0
 30
0.0
 40
7.22204478395397
100
AcDbArc
 50
297.1218827745
 51
300.7352600825
  0
ARC
  5
6C
330
1F
100
AcDbEntity
  8
0
  6
Continuous
 62
     7
100
AcDbCircle
 10
0.0
 20
0.0
 30
0.0
 40
7.222044783972686
100
AcDbArc
 50
309.9790256317
 51
313.5924029396
  0
ARC
  5
6D
330
1F
100
AcDbEntity
  8
0
  6
Continuous
 62
     7
100
AcDbCircle
 10
0.0
 20
0.0
 30
0.0
 40
7.222044783972697
100
AcDbArc
 50
322.8361684889
 51
326.4495457968
  0
ARC
  5
6E
330
1F
100
AcDbEntity
  8
0
  6
Continuous
 62
     7
100
AcDbCircle
 10
0.0
 20
0.0
 30
0.0
 40
7.222044783972683
100
AcDbArc
 50
335.693311346
 51
339.3066886539
  0
ARC
  5
6F
330
1F
100
AcDbEntity
  8
0
  6
Continuous
 62
     7
100
AcDbCircle
 10
0.0
 20
0.0
 30
0.0
 40
7.222044783953964
100
AcDbArc
 50
348.5504542031
 51
352.1638315111
  0
ARC
  5
70
330
1F
100
AcDbEntity
  8
0
  6
Continuous
 62
     7
100
AcDbCircle
 10
0.0
 20
0.0
 30
0.0
 40
7.22204478397268
100
AcDbArc
 50
1.4075970603
 51
5.0209743682
  0
ARC
  5
71
330
1F
100
AcDbEntity
  8
0
  6
Continuous
 62
     7
100
AcDbCircle
 10
0.0
 20
0.0
 30
0.0
 40
7.222044783972685
100
AcDbArc
 50
14.2647399174
 51
17.8781172255
  0
ARC
  5
72
330
1F
100
AcDbEntity
  8
0
  6
Continuous
 62
     7
100
AcDbCircle
 10
0.0
 20
0.0
 30
0.0
 40
7.222044783953901
100
AcDbArc
 50
27.1218827745
 51
30.7352600825
  0
ARC
  5
73
330
1F
100
AcDbEntity
  8
0
  6
Continuous
 62
     7
100
AcDbCircle
 10
0.0
 20
0.0
 30
0.0
 40
7.222044783972681
100
AcDbArc
 50
39.9790256317
 51
43.5924029396
  0
ARC
  5
74
330
1F
100
AcDbEntity
  8
0
  6
Continuous
 62
     7
100
AcDbCircle
 10
0.0
 20
0.0
 30
0.0
 40
7.222044783953973
100
AcDbArc
 50
52.8361684888
 51
56.4495457968
  0
ARC
  5
75
330
1F
100
AcDbEntity
  8
0
  6
Continuous
 62
     7
100
AcDbCircle
 10
0.0
 20
0.0
 30
0.0
 40
7.222044783972687
100
AcDbArc
 50
65.693311346
 51
69.3066886539
  0
ARC
  5
76
330
1F
100
AcDbEntity
  8
0
  6
Continuous
 62
     7
100
AcDbCircle
 10
0.0
 20
0.0
 30
0.0
 40
7.222044783953973
100
AcDbArc
 50
78.550454203
 51
82.1638315111
  0
ARC
  5
77
330
1F
100
AcDbEntity
  8
0
  6
Continuous
 62
     7
100
AcDbCircle
 10
0.0
 20
0.0
 30
0.0
 40
7.222044783972699
100
AcDbArc
 50
91.4075970603
 51
95.0209743682
  0
ARC
  5
78
330
1F
100
AcDbEntity
  8
0
  6
Continuous
 62
     7
100
AcDbCircle
 10
0.0
 20
0.0
 30
0.0
 40
7.222044783953969
100
AcDbArc
 50
104.2647399173
 51
107.8781172254
  0
ARC
  5
79
330
1F
100
AcDbEntity
  8
0
  6
Continuous
 62
     7
100
AcDbCircle
 10
0.0
 20
0.0
 30
0.0
 40
7.222044783953974
100
AcDbArc
 50
117.1218827745
 51
120.7352600825
  0
ARC
  5
7A
330
1F
100
AcDbEntity
  8
0
  6
Continuous
 62
     7
100
AcDbCircle
 10
0.0
 20
0.0
 30
0.0
 40
7.222044783972691
100
AcDbArc
 50
129.9790256317
 51
133.5924029396
  0
ARC
  5
7B
330
1F
100
AcDbEntity
  8
0
  6
Continuous
 62
     7
100
AcDbCircle
 10
0.0
 20
0.0
 30
0.0
 40
7.222044783972695
100
AcDbArc
 50
142.8361684889
 51
146.4495457968
  0
ARC
  5
7C
330
1F
100
AcDbEntity
  8
0
  6
Continuous
 62
     7
100
AcDbCircle
 10
0.0
 20
0.0
 30
0.0
 40
7.222044783972701
100
AcDbArc
 50
155.693311346
 51
159.3066886539
  0
ARC
  5
7D
330
1F
100
AcDbEntity
  8
0
  6
Continuous
 62
     7
100
AcDbCircle
 10
0.0
 20
0.0
 30
0.0
 40
7.222044783972703
100
AcDbArc
 50
168.5504542031
 51
172.1638315111
  0
ARC
  5
7E
330
1F
100
AcDbEntity
  8
0
  6
Continuous
 62
     7
100
AcDbCircle
 10
0.0
 20
0.0
 30
0.0
 40
7.222044783953978
100
AcDbArc
 50
181.4075970602
 51
185.0209743682
  0
SPLINE
  5
7F
330
1F
100
AcDbEntity
  8
0
  6
Continuous
 62
     7
100
AcDbSpline
210
0.0
220
0.0
230
1.0
 70
     8
 71
     3
 72
    13
 73
     9
 74
     0
 42
0.00000001
 43
0.00000001
 40
0.0
 40
0.0
 40
0.0
 40
0.0
 40
0.2491394879524133
 40
0.3738873928307566
 40
0.4940394059083333
 40
0.6153963383289198
 40
0.7435250821588834
 40
1.0
 40
1.0
 40
1.0
 40
1.0
 10
-6.873302161693591
 20
-2.217118323198825
 30
0.0
 10
-6.416137005274845
 20
-2.309259311614151
 30
0.0
 10
-6.183833937060342
 20
-2.332995557462068
 30
0.0
 10
-6.012511909670121
 20
-2.478711409855339
 30
0.0
 10
-6.011485515861898
 20
-2.705874191602
 30
0.0
 10
-6.161376777574169
 20
-2.893107623974466
 30
0.0
 10
-6.427899748314059
 20
-3.29242094625389
 30
0.0
 10
-6.349759126640161
 20
-3.152232676216106
 30
0.0
 10
-6.427899748314059
 20
-3.29242094625389
 30
0.0
  0
SPLINE
  5
80
330
1F
100
AcDbEntity
  8
0
  6
Continuous
 62
     7
100
AcDbSpline
210
0.0
220
0.0
230
1.0
 70
     8
 71
     3
 72
    13
 73
     9
 74
     0
 42
0.00000001
 43
0.00000001
 40
0.0
 40
0.0
 40
0.0
 40
0.0
 40
0.2533201875299482
 40
0.3798811145785778
 40
0.5004305239706242
 40
0.6214106812959485
 40
0.747703197782981
 40
0.9999999999999999
 40
0.9999999999999999
 40
0.9999999999999999
 40
0.9999999999999999
 10
-6.207618862390536
 20
-3.690984714312154
 30
0.0
 10
-5.733660423341058
 20
-3.678343613483908
 30
0.0
 10
-5.498452370538718
 20
-3.650266832669403
 30
0.0
 10
-5.303561410856362
 20
-3.763954111365
 30
0.0
 10
-5.262268234160275
 20
-3.986589713882651
 30
0.0
 10
-5.366441981669205
 20
-4.198771747322895
 30
0.0
 10
-5.534106297393577
 20
-4.640215334506097
 30
0.0
 10
-5.489675366106584
 20
-4.488465870320725
 30
0.0
 10
-5.534106297393577
 20
-4.640215334506097
 30
0.0
  0
SPLINE
  5
81
330
1F
100
AcDbEntity
  8
0
  6
Continuous
 62
     7
100
AcDbSpline
210
0.0
220
0.0
230
1.0
 70
     8
 71
     3
 72
    13
 73
     9
 74
     0
 42
0.00000001
 43
0.00000001
 40
0.0
 40
0.0
 40
0.0
 40
0.0
 40
0.2533209958561659
 40
0.3798817858925488
 40
0.5004310647805533
 40
0.6214110911352914
 40
0.7477034709012342
 40
1.0
 40
1.0
 40
1.0
 40
1.0
 10
-5.230661481618899
 20
-4.979769719634181
 30
0.0
 10
-4.771397129380281
 20
-4.86197933176395
 30
0.0
 10
-4.548333905026272
 20
-4.782267778883213
 30
0.0
 10
-4.333031469173996
 20
-4.84973736178917
 30
0.0
 10
-4.243232516438042
 20
-5.057602428685175
 30
0.0
 10
-4.297579466351356
 20
-5.287645455135504
 30
0.0
 10
-4.362809648319158
 20
-5.755329950075891
 30
0.0
 10
-4.353260125775901
 20
-5.597498349322799
 30
0.0
 10
-4.362809648319158
 20
-5.755329950075891
 30
0.0
  0
SPLINE
  5
82
330
1F
100
AcDbEntity
  8
0
  6
Continuous
 62
     7
100
AcDbSpline
210
0.0
220
0.0
230
1.0
 70
     8
 71
     3
 72
    13
 73
     9
 74
     0
 42
0.00000001
 43
0.00000001
 40
0.0
 40
0.0
 40
0.0
 40
0.0
 40
0.253320657517316
 40
0.3798815049015342
 40
0.5004308384134005
 40
0.6214109195872062
 40
0.7477033565793791
 40
1.0
 40
1.0
 40
1.0
 40
1.0
 10
-3.991413861513155
 20
-6.018848277517497
 30
0.0
 10
-3.569876059756733
 20
-5.801815104494025
 30
0.0
 10
-3.37014298534687
 20
-5.674465849652675
 30
0.0
 10
-3.145225236471885
 20
-5.692334530141937
 30
0.0
 10
-3.011423402142216
 20
-5.875005838995246
 30
0.0
 10
-3.013218371458784
 20
-6.111374540536871
 30
0.0
 10
-2.972743505964876
 20
-6.581848289762585
 30
0.0
 10
-2.998554245165246
 20
-6.425848887954566
 30
0.0
 10
-2.972743505964876
 20
-6.581848289762585
 30
0.0
  0
SPLINE
  5
83
330
1F
100
AcDbEntity
  8
0
  6
Continuous
 62
     7
100
AcDbSpline
210
0.0
220
0.0
230
1.0
 70
     8
 71
     3
 72
    13
 73
     9
 74
     0
 42
0.00000001
 43
0.00000001
 40
0.0
 40
0.0
 40
0.0
 40
0.0
 40
0.2533208180037614
 40
0.3798816381858127
 40
0.5004309457875773
 40
0.6214110009586971
 40
0.7477034108063856
 40
0.9999999999999999
 40
0.9999999999999999
 40
0.9999999999999999
 40
0.9999999999999999
 10
-2.552021294832247
 20
-6.756116650220216
 30
0.0
 10
-2.189346497992588
 20
-6.450723641614618
 30
0.0
 10
-2.022959023890451
 20
-6.282122508214591
 30
0.0
 10
-1.7997042770961
 20
-6.249494276034485
 30
0.0
 10
-1.628608943853965
 20
-6.397811924650276
 30
0.0
 10
-1.577761925317111
 20
-6.62865378759811
 30
0.0
 10
-1.433611591125663
 20
-7.078325272795624
 30
0.0
 10
-1.493488333827979
 20
-6.93198053144135
 30
0.0
 10
-1.433611591125663
 20
-7.078325272795624
 30
0.0
  0
SPLINE
  5
84
330
1F
100
AcDbEntity
  8
0
  6
Continuous
 62
     7
100
AcDbSpline
210
0.0
220
0.0
230
1.0
 70
     8
 71
     3
 72
    13
 73
     9
 74
     0
 42
0.00000001
 43
0.00000001
 40
0.0
 40
0.0
 40
0.0
 40
0.0
 40
0.2533211278878891
 40
0.379881895545132
 40
0.5004311531169653
 40
0.6214111580793771
 40
0.7477035155136349
 40
1.0
 40
1.0
 40
1.0
 40
1.0
 10
-0.9846603497862989
 20
-7.154605123030545
 30
0.0
 10
-0.6990339609043412
 20
-6.776165959468579
 30
0.0
 10
-0.5743354498349937
 20
-6.574767312355541
 30
0.0
 10
-0.3639386303561281
 20
-6.493278283311152
 30
0.0
 10
-0.1641292326421407
 20
-6.599805005467289
 30
0.0
 10
-0.0631899080799781
 20
-6.813544654901463
 30
0.0
 10
0.1774075951332661
 20
-7.219865470138346
 30
0.0
 10
0.0864673189920733
 20
-7.090513725802518
 30
0.0
 10
0.1774075951332661
 20
-7.219865470138346
 30
0.0
  0
SPLINE
  5
85
330
1F
100
AcDbEntity
  8
0
  6
Continuous
 62
     7
100
AcDbSpline
210
0.0
220
0.0
230
1.0
 70
     8
 71
     3
 72
    13
 73
     9
 74
     0
 42
0.00000001
 43
0.00000001
 40
0.0
 40
0.0
 40
0.0
 40
0.0
 40
0.2533212251185368
 40
0.3798819762953475
 40
0.5004312181695834
 40
0.6214112073782921
 40
0.7477035483670637
 40
1.0
 40
1.0
 40
1.0
 40
1.0
 10
0.6320760585367506
 20
-7.194331819924464
 30
0.0
 10
0.8263310578952752
 20
-6.761823021309867
 30
0.0
 10
0.9030877018911527
 20
-6.537725829617606
 30
0.0
 10
1.090076418985269
 20
-6.411462203893739
 30
0.0
 10
1.308580603638372
 20
-6.470856304924461
 30
0.0
 10
1.454550715006372
 20
-6.65677594232329
 30
0.0
 10
1.7795308237826
 20
-6.999371465275616
 30
0.0
 10
1.662087139402454
 20
-6.893498954472955
 30
0.0
 10
1.7795308237826
 20
-6.999371465275616
 30
0.0
  0
SPLINE
  5
86
330
1F
100
AcDbEntity
  8
0
  6
Continuous
 62
     7
100
AcDbSpline
210
0.0
220
0.0
230
1.0
 70
     8
 71
     3
 72
    13
 73
     9
 74
     0
 42
0.00000001
 43
0.00000001
 40
0.0
 40
0.0
 40
0.0
 40
0.0
 40
0.2533212246820697
 40
0.3798819759350067
 40
0.5004312178823355
 40
0.6214112071637753
 40
0.7477035482280963
 40
1.0
 40
1.0
 40
1.0
 40
1.0
 10
2.217117697000486
 20
-6.873304678453877
 30
0.0
 10
2.310260386994089
 20
-6.408414041948116
 30
0.0
 10
2.335226265278802
 20
-6.172855474616338
 30
0.0
 10
2.489430484917795
 20
-6.008148637637679
 30
0.0
 10
2.715672744297457
 20
-6.017431849311009
 30
0.0
 10
2.899354091568588
 20
-6.166208687722273
 30
0.0
 10
3.29242094623457
 20
-6.427899748302885
 30
0.0
 10
3.154362970365217
 20
-6.350815360751124
 30
0.0
 10
3.29242094623457
 20
-6.427899748302885
 30
0.0
  0
SPLINE
  5
87
330
1F
100
AcDbEntity
  8
0
  6
Continuous
 62
     7
100
AcDbSpline
210
0.0
220
0.0
230
1.0
 70
     8
 71
     3
 72
    13
 73
     9
 74
     0
 42
0.00000001
 43
0.00000001
 40
0.0
 40
0.0
 40
0.0
 40
0.0
 40
0.2533211690573778
 40
0.3798819297364527
 40
0.5004311806615472
 40
0.6214111789535004
 40
0.7477035294244196
 40
1.0
 40
1.0
 40
1.0
 40
1.0
 10
3.690984100103361
 20
-6.207621339953683
 30
0.0
 10
3.678343613481618
 20
-5.733660423317462
 30
0.0
 10
3.650266832669402
 20
-5.498452370519336
 30
0.0
 10
3.763954111376504
 20
-5.303561410848139
 30
0.0
 10
3.986589713892033
 20
-5.262268234163643
 30
0.0
 10
4.198771747328892
 20
-5.366441981671949
 30
0.0
 10
4.640215334527393
 20
-5.534106297400113
 30
0.0
 10
4.488465870441572
 20
-5.48967536611129
 30
0.0
 10
4.640215334527393
 20
-5.534106297400113
 30
0.0
  0
SPLINE
  5
88
330
1F
100
AcDbEntity
  8
0
  6
Continuous
 62
     7
100
AcDbSpline
210
0.0
220
0.0
230
1.0
 70
     8
 71
     3
 72
    13
 73
     9
 74
     0
 42
0.00000001
 43
0.00000001
 40
0.0
 40
0.0
 40
0.0
 40
0.0
 40
0.2533208966629292
 40
0.3798817035123977
 40
0.5004309984148901
 40
0.621411040841331
 40
0.7477034373846887
 40
1.0
 40
1.0
 40
1.0
 40
1.0
 10
4.979766905307752
 20
-5.230661946728899
 30
0.0
 10
4.86197933176393
 20
-4.771397129380228
 30
0.0
 10
4.782267778883188
 20
-4.548333905026213
 30
0.0
 10
4.849737361789189
 20
-4.333031469173929
 30
0.0
 10
5.057602428685212
 20
-4.243232516438006
 30
0.0
 10
5.28764545513552
 20
-4.297579466351327
 30
0.0
 10
5.755329950075883
 20
-4.362809648319122
 30
0.0
 10
5.597498350325936
 20
-4.353260125518386
 30
0.0
 10
5.755329950075883
 20
-4.362809648319122
 30
0.0
  0
SPLINE
  5
89
330
1F
100
AcDbEntity
  8
0
  6
Continuous
 62
     7
100
AcDbSpline
210
0.0
220
0.0
230
1.0
 70
     8
 71
     3
 72
    13
 73
     9
 74
     0
 42
0.00000001
 43
0.00000001
 40
0.0
 40
0.0
 40
0.0
 40
0.0
 40
0.2533209837798118
 40
0.379881775863131
 40
0.5004310567008571
 40
0.6214110850122628
 40
0.7477034668207733
 40
1.0
 40
1.0
 40
1.0
 40
1.0
 10
6.01884722709654
 20
-3.991415322181435
 30
0.0
 10
5.801815104493965
 20
-3.569876059756626
 30
0.0
 10
5.674465849652612
 20
-3.370142985346722
 30
0.0
 10
5.692334530142007
 20
-3.145225236471675
 30
0.0
 10
5.875005838995414
 20
-3.011423402142155
 30
0.0
 10
6.111374540536988
 20
-3.013218371458739
 30
0.0
 10
6.58184828976258
 20
-2.972743505964833
 30
0.0
 10
6.425848888425854
 20
-2.998554244923291
 30
0.0
 10
6.58184828976258
 20
-2.972743505964833
 30
0.0
  0
SPLINE
  5
8A
330
1F
100
AcDbEntity
  8
0
  6
Continuous
 62
     7
100
AcDbSpline
210
0.0
220
0.0
230
1.0
 70
     8
 71
     3
 72
    13
 73
     9
 74
     0
 42
0.00000001
 43
0.00000001
 40
0.0
 40
0.0
 40
0.0
 40
0.0
 40
0.2533209326568628
 40
0.3798817334075595
 40
0.5004310225015177
 40
0.6214110590980825
 40
0.7477034495552054
 40
1.0
 40
1.0
 40
1.0
 40
1.0
 10
6.756115704774839
 20
-2.552022466650323
 30
0.0
 10
6.45072364161426
 20
-2.189346497992186
 30
0.0
 10
6.28212250821418
 20
-2.022959023889914
 30
0.0
 10
6.249494276034992
 20
-1.799704277094208
 30
0.0
 10
6.397811924652235
 20
-1.628608943853255
 30
0.0
 10
6.628653787599472
 20
-1.577761925316742
 30
0.0
 10
7.078325272774855
 20
-1.433611591133777
 30
0.0
 10
6.931980531821709
 20
-1.493488333500738
 30
0.0
 10
7.078325272774855
 20
-1.433611591133777
 30
0.0
  0
SPLINE
  5
8B
330
1F
100
AcDbEntity
  8
0
  6
Continuous
 62
     7
100
AcDbSpline
210
0.0
220
0.0
230
1.0
 70
     8
 71
     3
 72
    13
 73
     9
 74
     0
 42
0.00000001
 43
0.00000001
 40
0.0
 40
0.0
 40
0.0
 40
0.0
 40
0.2533203586428644
 40
0.3798812566857936
 40
0.5004306384501288
 40
0.6214107680488117
 40
0.7477032555922407
 40
0.9999999999999999
 40
0.9999999999999999
 40
0.9999999999999999
 40
0.9999999999999999
 10
7.154602557420713
 20
-0.9846605483033132
 30
0.0
 10
6.776165959468533
 20
-0.6990339609042868
 30
0.0
 10
6.574767312355506
 20
-0.5743354498349508
 30
0.0
 10
6.493278283311143
 20
-0.3639386303560799
 30
0.0
 10
6.599805005467284
 20
-0.1641292326420921
 30
0.0
 10
6.81354465490146
 20
-0.0631899080799393
 30
0.0
 10
7.219865470138327
 20
0.1774075951332992
 30
0.0
 10
7.090513726236204
 20
0.0864673195692725
 30
0.0
 10
7.219865470138327
 20
0.1774075951332992
 30
0.0
  0
SPLINE
  5
8C
330
1F
100
AcDbEntity
  8
0
  6
Continuous
 62
     7
100
AcDbSpline
210
0.0
220
0.0
230
1.0
 70
     8
 71
     3
 72
    13
 73
     9
 74
     0
 42
0.00000001
 43
0.00000001
 40
0.0
 40
0.0
 40
0.0
 40
0.0
 40
0.2533201687210476
 40
0.3798810989553891
 40
0.5004305113820843
 40
0.6214106717526803
 40
0.747703191419258
 40
1.0
 40
1.0
 40
1.0
 40
1.0
 10
7.194329053163511
 20
0.6320763614804618
 30
0.0
 10
6.761823021309852
 20
0.8263310578953045
 30
0.0
 10
6.537725829617592
 20
0.9030877018911831
 30
0.0
 10
6.411462203893723
 20
1.090076418985256
 30
0.0
 10
6.470856304924393
 20
1.308580603638356
 30
0.0
 10
6.656775942323248
 20
1.454550715006383
 30
0.0
 10
6.999371465275601
 20
1.779530823782639
 30
0.0
 10
6.893498954658803
 20
1.662087139821454
 30
0.0
 10
6.999371465275601
 20
1.779530823782639
 30
0.0
  0
SPLINE
  5
8D
330
1F
100
AcDbEntity
  8
0
  6
Continuous
 62
     7
100
AcDbSpline
210
0.0
220
0.0
230
1.0
 70
     8
 71
     3
 72
    13
 73
     9
 74
     0
 42
0.00000001
 43
0.00000001
 40
0.0
 40
0.0
 40
0.0
 40
0.0
 40
0.2491394879555692
 40
0.3738873928317397
 40
0.4940394059074447
 40
0.6153963383274907
 40
0.7435250821560639
 40
0.9999999999999999
 40
0.9999999999999999
 40
0.9999999999999999
 40
0.9999999999999999
 10
6.873302161693555
 20
2.21711832320761
 30
0.0
 10
6.416137005272714
 20
2.309259311614449
 30
0.0
 10
6.183833937064969
 20
2.332995557461266
 30
0.0
 10
6.012511909674403
 20
2.47871140984461
 30
0.0
 10
6.011485515853557
 20
2.70587419158751
 30
0.0
 10
6.161376777560646
 20
2.893107623957149
 30
0.0
 10
6.427899748302832
 20
3.292420946234543
 30
0.0
 10
6.349759126628342
 20
3.152232676197888
 30
0.0
 10
6.427899748302832
 20
3.292420946234543
 30
0.0
  0
SPLINE
  5
8E
330
1F
100
AcDbEntity
  8
0
  6
Continuous
 62
     7
100
AcDbSpline
210
0.0
220
0.0
230
1.0
 70
     8
 71
     3
 72
    13
 73
     9
 74
     0
 42
0.00000001
 43
0.00000001
 40
0.0
 40
0.0
 40
0.0
 40
0.0
 40
0.2533201875394205
 40
0.3798811145840847
 40
0.5004305239725789
 40
0.621410681294148
 40
0.7477031977778146
 40
1.0
 40
1.0
 40
1.0
 40
1.0
 10
6.2076188623905
 20
3.690984714313382
 30
0.0
 10
5.733660423317425
 20
3.678343613481662
 30
0.0
 10
5.498452370519293
 20
3.650266832669441
 30
0.0
 10
5.30356141084809
 20
3.763954111376584
 30
0.0
 10
5.262268234163647
 20
3.986589713892138
 30
0.0
 10
5.36644198167194
 20
4.198771747328983
 30
0.0
 10
5.534106297400091
 20
4.640215334527436
 30
0.0
 10
5.489675366112108
 20
4.48846587033668
 30
0.0
 10
5.534106297400091
 20
4.640215334527436
 30
0.0
  0
SPLINE
  5
8F
330
1F
100
AcDbEntity
  8
0
  6
Continuous
 62
     7
100
AcDbSpline
210
0.0
220
0.0
230
1.0
 70
     8
 71
     3
 72
    13
 73
     9
 74
     0
 42
0.00000001
 43
0.00000001
 40
0.0
 40
0.0
 40
0.0
 40
0.0
 40
0.2533209958600435
 40
0.3798817858979122
 40
0.5004310647879111
 40
0.6214110911440336
 40
0.7477034709110421
 40
1.0
 40
1.0
 40
1.0
 40
1.0
 10
5.230661481618863
 20
4.979769719639957
 30
0.0
 10
4.771397129379755
 20
4.861979331763814
 30
0.0
 10
4.548333905025603
 20
4.782267778883102
 30
0.0
 10
4.333031469172507
 20
4.849737361790472
 30
0.0
 10
4.243232516438242
 20
5.057602428687265
 30
0.0
 10
4.297579466351591
 20
5.287645455136913
 30
0.0
 10
4.362809648317435
 20
5.755329950053695
 30
0.0
 10
4.353260125773807
 20
5.597498349308571
 30
0.0
 10
4.362809648317435
 20
5.755329950053695
 30
0.0
  0
SPLINE
  5
90
330
1F
100
AcDbEntity
  8
0
  6
Continuous
 62
     7
100
AcDbSpline
210
0.0
220
0.0
230
1.0
 70
     8
 71
     3
 72
    13
 73
     9
 74
     0
 42
0.00000001
 43
0.00000001
 40
0.0
 40
0.0
 40
0.0
 40
0.0
 40
0.2533206575151142
 40
0.3798815048997249
 40
0.5004308384119588
 40
0.6214109195861187
 40
0.7477033565786582
 40
1.0
 40
1.0
 40
1.0
 40
1.0
 10
3.99141386151312
 20
6.018848277505118
 30
0.0
 10
3.569876059756594
 20
5.801815104493983
 30
0.0
 10
3.370142985346705
 20
5.674465849652638
 30
0.0
 10
3.145225236471724
 20
5.692334530142023
 30
0.0
 10
3.011423402142161
 20
5.875005838995382
 30
0.0
 10
3.013218371458737
 20
6.111374540536978
 30
0.0
 10
2.972743505964833
 20
6.581848289762616
 30
0.0
 10
2.998554245165192
 20
6.425848887954621
 30
0.0
 10
2.972743505964833
 20
6.581848289762616
 30
0.0
  0
SPLINE
  5
91
330
1F
100
AcDbEntity
  8
0
  6
Continuous
 62
     7
100
AcDbSpline
210
0.0
220
0.0
230
1.0
 70
     8
 71
     3
 72
    13
 73
     9
 74
     0
 42
0.00000001
 43
0.00000001
 40
0.0
 40
0.0
 40
0.0
 40
0.0
 40
0.2533208180118077
 40
0.3798816381946394
 40
0.5004309457977387
 40
0.6214110009695725
 40
0.7477034108176204
 40
1.0
 40
1.0
 40
1.0
 40
1.0
 10
2.552021294832212
 20
6.756116650238666
 30
0.0
 10
2.189346497992174
 20
6.450723641614287
 30
0.0
 10
2.0229590238899
 20
6.282122508214218
 30
0.0
 10
1.799704277094173
 20
6.249494276035042
 30
0.0
 10
1.628608943853236
 20
6.397811924652307
 30
0.0
 10
1.577761925316726
 20
6.628653787599541
 30
0.0
 10
1.433611591133763
 20
7.078325272774899
 30
0.0
 10
1.493488333832288
 20
6.931980531427651
 30
0.0
 10
1.433611591133763
 20
7.078325272774899
 30
0.0
  0
SPLINE
  5
92
330
1F
100
AcDbEntity
  8
0
  6
Continuous
 62
     7
100
AcDbSpline
210
0.0
220
0.0
230
1.0
 70
     8
 71
     3
 72
    13
 73
     9
 74
     0
 42
0.00000001
 43
0.00000001
 40
0.0
 40
0.0
 40
0.0
 40
0.0
 40
0.2533211278878722
 40
0.3798818955451036
 40
0.5004311531169308
 40
0.6214111580793549
 40
0.7477035155136204
 40
0.9999999999999999
 40
0.9999999999999999
 40
0.9999999999999999
 40
0.9999999999999999
 10
0.9846603497862643
 20
7.154605123030574
 30
0.0
 10
0.6990339609043185
 20
6.776165959468631
 30
0.0
 10
0.5743354498349903
 20
6.574767312355603
 30
0.0
 10
0.3639386303561494
 20
6.493278283311172
 30
0.0
 10
0.1641292326421142
 20
6.599805005467275
 30
0.0
 10
0.0631899080799422
 20
6.813544654901465
 30
0.0
 10
-0.1774075951333154
 20
7.219865470138379
 30
0.0
 10
-0.0864673189921161
 20
7.090513725802544
 30
0.0
 10
-0.1774075951333154
 20
7.219865470138379
 30
0.0
  0
SPLINE
  5
93
330
1F
100
AcDbEntity
  8
0
  6
Continuous
 62
     7
100
AcDbSpline
210
0.0
220
0.0
230
1.0
 70
     8
 71
     3
 72
    13
 73
     9
 74
     0
 42
0.00000001
 43
0.00000001
 40
0.0
 40
0.0
 40
0.0
 40
0.0
 40
0.2533212251218386
 40
0.3798819763002133
 40
0.5004312181765146
 40
0.6214112073866909
 40
0.7477035483766461
 40
1.0
 40
1.0
 40
1.0
 40
1.0
 10
-0.6320760585367853
 20
7.194331819924489
 30
0.0
 10
-0.8263310578954877
 20
6.76182302130942
 30
0.0
 10
-0.9030877018914526
 20
6.537725829617091
 30
0.0
 10
-1.090076418987122
 20
6.411462203893444
 30
0.0
 10
-1.308580603639793
 20
6.470856304925893
 30
0.0
 10
-1.45455071500727
 20
6.656775942324352
 30
0.0
 10
-1.779530823766301
 20
6.999371465260479
 30
0.0
 10
-1.662087139392603
 20
6.893498954462483
 30
0.0
 10
-1.779530823766301
 20
6.999371465260479
 30
0.0
  0
SPLINE
  5
94
330
1F
100
AcDbEntity
  8
0
  6
Continuous
 62
     7
100
AcDbSpline
210
0.0
220
0.0
230
1.0
 70
     8
 71
     3
 72
    13
 73
     9
 74
     0
 42
0.00000001
 43
0.00000001
 40
0.0
 40
0.0
 40
0.0
 40
0.0
 40
0.2533212246703593
 40
0.379881975925277
 40
0.5004312178745017
 40
0.6214112071578343
 40
0.747703548224135
 40
1.0
 40
1.0
 40
1.0
 40
1.0
 10
-2.217117697000521
 20
6.873304678423892
 30
0.0
 10
-2.310260386994131
 20
6.408414041948081
 30
0.0
 10
-2.335226265278854
 20
6.172855474616318
 30
0.0
 10
-2.489430484917876
 20
6.008148637637681
 30
0.0
 10
-2.715672744297523
 20
6.017431849311041
 30
0.0
 10
-2.899354091568643
 20
6.166208687722306
 30
0.0
 10
-3.292420946234627
 20
6.427899748302909
 30
0.0
 10
-3.154362970365276
 20
6.350815360751151
 30
0.0
 10
-3.292420946234627
 20
6.427899748302909
 30
0.0
  0
SPLINE
  5
95
330
1F
100
AcDbEntity
  8
0
  6
Continuous
 62
     7
100
AcDbSpline
210
0.0
220
0.0
230
1.0
 70
     8
 71
     3
 72
    13
 73
     9
 74
     0
 42
0.00000001
 43
0.00000001
 40
0.0
 40
0.0
 40
0.0
 40
0.0
 40
0.2533211690573873
 40
0.3798819297364694
 40
0.5004311806615913
 40
0.6214111789535607
 40
0.7477035294244668
 40
1.0
 40
1.0
 40
1.0
 40
1.0
 10
-3.690984100103396
 20
6.207621339953714
 30
0.0
 10
-3.678343613481663
 20
5.733660423317472
 30
0.0
 10
-3.650266832669445
 20
5.498452370519332
 30
0.0
 10
-3.763954111376611
 20
5.30356141084811
 30
0.0
 10
-3.986589713892187
 20
5.262268234163694
 30
0.0
 10
-4.198771747329025
 20
5.366441981671991
 30
0.0
 10
-4.640215334527442
 20
5.534106297400138
 30
0.0
 10
-4.488465870441651
 20
5.48967536611131
 30
0.0
 10
-4.640215334527442
 20
5.534106297400138
 30
0.0
  0
SPLINE
  5
96
330
1F
100
AcDbEntity
  8
0
  6
Continuous
 62
     7
100
AcDbSpline
210
0.0
220
0.0
230
1.0
 70
     8
 71
     3
 72
    13
 73
     9
 74
     0
 42
0.00000001
 43
0.00000001
 40
0.0
 40
0.0
 40
0.0
 40
0.0
 40
0.2533208966746884
 40
0.3798817035221588
 40
0.5004309984227184
 40
0.6214110408472466
 40
0.7477034373886344
 40
1.0
 40
1.0
 40
1.0
 40
1.0
 10
-4.979766905307788
 20
5.230661946759444
 30
0.0
 10
-4.861979331764007
 20
4.771397129380311
 30
0.0
 10
-4.78226777888326
 20
4.548333905026298
 30
0.0
 10
-4.849737361789164
 20
4.333031469174042
 30
0.0
 10
-5.057602428685139
 20
4.243232516438018
 30
0.0
 10
-5.287645455135496
 20
4.297579466351331
 30
0.0
 10
-5.755329950075928
 20
4.362809648319141
 30
0.0
 10
-5.597498350325961
 20
4.353260125518405
 30
0.0
 10
-5.755329950075928
 20
4.362809648319141
 30
0.0
  0
SPLINE
  5
97
330
1F
100
AcDbEntity
  8
0
  6
Continuous
 62
     7
100
AcDbSpline
210
0.0
220
0.0
230
1.0
 70
     8
 71
     3
 72
    13
 73
     9
 74
     0
 42
0.00000001
 43
0.00000001
 40
0.0
 40
0.0
 40
0.0
 40
0.0
 40
0.2533209837797885
 40
0.3798817758630961
 40
0.500431056700791
 40
0.6214110850121946
 40
0.7477034668207245
 40
1.0
 40
1.0
 40
1.0
 40
1.0
 10
-6.018847227096575
 20
3.991415322181454
 30
0.0
 10
-5.801815104494031
 20
3.569876059756684
 30
0.0
 10
-5.674465849652687
 20
3.370142985346804
 30
0.0
 10
-5.692334530142012
 20
3.145225236471811
 30
0.0
 10
-5.875005838995349
 20
3.011423402142209
 30
0.0
 10
-6.111374540536957
 20
3.013218371458783
 30
0.0
 10
-6.581848289762635
 20
2.972743505964874
 30
0.0
 10
-6.425848888425883
 20
2.998554244923339
 30
0.0
 10
-6.581848289762635
 20
2.972743505964874
 30
0.0
  0
SPLINE
  5
98
330
1F
100
AcDbEntity
  8
0
  6
Continuous
 62
     7
100
AcDbSpline
210
0.0
220
0.0
230
1.0
 70
     8
 71
     3
 72
    13
 73
     9
 74
     0
 42
0.00000001
 43
0.00000001
 40
0.0
 40
0.0
 40
0.0
 40
0.0
 40
0.2533209326459152
 40
0.3798817333963136
 40
0.5004310224894273
 40
0.6214110590857566
 40
0.7477034495430105
 40
1.0
 40
1.0
 40
1.0
 40
1.0
 10
-6.756115704774874
 20
2.552022466625347
 30
0.0
 10
-6.450723641614667
 20
2.189346497992597
 30
0.0
 10
-6.282122508214641
 20
2.022959023890472
 30
0.0
 10
-6.24949427603452
 20
1.7997042770961
 30
0.0
 10
-6.397811924650326
 20
1.628608943853958
 30
0.0
 10
-6.628653787598162
 20
1.577761925317101
 30
0.0
 10
-7.078325272795665
 20
1.433611591125655
 30
0.0
 10
-6.931980531835497
 20
1.493488333496409
 30
0.0
 10
-7.078325272795665
 20
1.433611591125655
 30
0.0
  0
SPLINE
  5
99
330
1F
100
AcDbEntity
  8
0
  6
Continuous
 62
     7
100
AcDbSpline
210
0.0
220
0.0
230
1.0
 70
     8
 71
     3
 72
    13
 73
     9
 74
     0
 42
0.00000001
 43
0.00000001
 40
0.0
 40
0.0
 40
0.0
 40
0.0
 40
0.2533203586461527
 40
0.3798812566906462
 40
0.5004306384570569
 40
0.6214107680572157
 40
0.7477032556018215
 40
1.0
 40
1.0
 40
1.0
 40
1.0
 10
-7.154602557420748
 20
0.9846605483033368
 30
0.0
 10
-6.776165959468179
 20
0.6990339609040473
 30
0.0
 10
-6.574767312355109
 20
0.5743354498346157
 30
0.0
 10
-6.493278283311302
 20
0.3639386303542653
 30
0.0
 10
-6.59980500546904
 20
0.1641292326410759
 30
0.0
 10
-6.813544654902723
 20
0.0631899080793586
 30
0.0
 10
-7.219865470119968
 20
-0.1774075951207084
 30
0.0
 10
-7.09051372622383
 20
-0.0864673195619353
 30
0.0
 10
-7.219865470119968
 20
-0.1774075951207084
 30
0.0
  0
SPLINE
  5
9A
330
1F
100
AcDbEntity
  8
0
  6
Continuous
 62
     7
100
AcDbSpline
210
0.0
220
0.0
230
1.0
 70
     8
 71
     3
 72
    13
 73
     9
 74
     0
 42
0.00000001
 43
0.00000001
 40
0.0
 40
0.0
 40
0.0
 40
0.0
 40
0.2533201687210365
 40
0.3798810989553764
 40
0.5004305113820698
 40
0.6214106717526663
 40
0.7477031914192297
 40
0.9999999999999999
 40
0.9999999999999999
 40
0.9999999999999999
 40
0.9999999999999999
 10
-7.194329053163546
 20
-0.6320763614804318
 30
0.0
 10
-6.76182302130987
 20
-0.8263310578952933
 30
0.0
 10
-6.537725829617593
 20
-0.9030877018911833
 30
0.0
 10
-6.411462203893763
 20
-1.090076418985304
 30
0.0
 10
-6.470856304924525
 20
-1.3085806036384
 30
0.0
 10
-6.656775942323381
 20
-1.454550715006419
 30
0.0
 10
-6.999371465275793
 20
-1.779530823782754
 30
0.0
 10
-6.893498954658975
 20
-1.66208713982154
 30
0.0
 10
-6.999371465275793
 20
-1.779530823782754
 30
0.0
  0
MTEXT
  5
9C
330
1F
100
AcDbEntity
  8
0
  6
Continuous
 62
     7
100
AcDbMText
 10
-7.2198654701
 20
-8.2394318618
 30
0.0
 40
4.83362
 41
0.0
 71
     1
 72
     1
  1
SOLIDWORKS Educational Product.
  7
SLDTEXTSTYLE0
 73
     1
 44
1.0
  0
MTEXT
  5
9D
330
1F
100
AcDbEntity
  8
0
  6
Continuous
 62
     7
100
AcDbMText
 10
-7.2198654701
 20
-15.4898618618
 30
0.0
 40
4.83362
 41
0.0
 71
     1
 72
     1
  1
For Instructional Use Only.
  7
SLDTEXTSTYLE0
 73
     1
 44
1.0
  0
ENDSEC
  0
SECTION
  2
OBJECTS
  0
DICTIONARY
  5
C
330
0
100
AcDbDictionary
281
     1
  3
ACAD_GROUP
350
D
  3
ACAD_LAYOUT
350
1A
  3
ACAD_MLINESTYLE
350
17
  3
ACAD_PLOTSETTINGS
350
19
  3
ACAD_PLOTSTYLENAME
350
E
  3
ACAD_SCALELIST
350
47
  3
DWGPROPS
350
9E
  0
DICTIONARY
  5
D
102
{ACAD_REACTORS
330
C
102
}
330
C
100
AcDbDictionary
281
     1
  0
DICTIONARY
  5
1A
102
{ACAD_REACTORS
330
C
102
}
330
C
100
AcDbDictionary
281
     1
  3
Layout1
350
1E
  3
Layout2
350
26
  3
Model
350
22
  0
DICTIONARY
  5
17
102
{ACAD_REACTORS
330
C
102
}
330
C
100
AcDbDictionary
281
     1
  3
Standard
350
18
  0
DICTIONARY
  5
19
102
{ACAD_REACTORS
330
C
102
}
330
C
100
AcDbDictionary
281
     1
  0
ACDBDICTIONARYWDFLT
  5
E
102
{ACAD_REACTORS
330
C
102
}
330
C
100
AcDbDictionary
281
     1
  3
Normal
350
F
100
AcDbDictionaryWithDefault
340
F
  0
DICTIONARY
  5
47
102
{ACAD_REACTORS
330
C
102
}
330
C
100
AcDbDictionary
281
     1
  3
A0
350
48
  3
A1
350
49
  3
A2
350
4A
  3
A3
350
4B
  3
A4
350
4C
  3
A5
350
4D
  3
A6
350
4E
  3
A7
350
4F
  3
A8
350
50
  3
A9
350
51
  3
B0
350
52
  3
B1
350
53
  3
B2
350
54
  3
B3
350
55
  3
B4
350
56
  3
B5
350
57
  3
B6
350
58
  0
XRECORD
  5
9E
102
{ACAD_REACTORS
330
C
102
}
330
C
100
AcDbXrecord
280
     1
  1
DWGPROPS COOKIE
  2

  3

  4

  6

  7

  8
tonyj
  9

300
=
301
=
302
=
303
=
304
=
305
=
306
=
307
=
308
=
309
=
 40
0.0
 41
2460450.016818681
 42
2460450.016858646
  1

 90
        0
  0
LAYOUT
  5
1E
102
{ACAD_REACTORS
330
1A
102
}
330
1A
100
AcDbPlotSettings
  1

  2
none_device
  4

  6

 40
0.0
 41
0.0
 42
0.0
 43
0.0
 44
0.0
 45
0.0
 46
0.0
 47
0.0
 48
0.0
 49
0.0
140
0.0
141
0.0
142
1.0
143
1.0
 70
   688
 72
     1
 73
     0
 74
     5
  7

 75
    16
147
1.0
148
0.0
149
0.0
100
AcDbLayout
  1
Layout1
 70
     1
 71
     1
 10
0.0
 20
0.0
 11
420.0
 21
297.0
 12
0.0
 22
0.0
 32
0.0
 14
1.0000000000E+20
 24
1.0000000000E+20
 34
1.0000000000E+20
 15
-1.0000000000E+20
 25
-1.0000000000E+20
 35
-1.0000000000E+20
146
0.0
 13
0.0
 23
0.0
 33
0.0
 16
1.0
 26
0.0
 36
0.0
 17
0.0
 27
1.0
 37
0.0
 76
     0
330
1B
  0
LAYOUT
  5
26
102
{ACAD_REACTORS
330
1A
102
}
330
1A
100
AcDbPlotSettings
  1

  2
none_device
  4

  6

 40
0.0
 41
0.0
 42
0.0
 43
0.0
 44
0.0
 45
0.0
 46
0.0
 47
0.0
 48
0.0
 49
0.0
140
0.0
141
0.0
142
1.0
143
1.0
 70
   688
 72
     1
 73
     0
 74
     5
  7

 75
    16
147
1.0
148
0.0
149
0.0
100
AcDbLayout
  1
Layout2
 70
     1
 71
     2
 10
0.0
 20
0.0
 11
0.0
 21
0.0
 12
0.0
 22
0.0
 32
0.0
 14
0.0
 24
0.0
 34
0.0
 15
0.0
 25
0.0
 35
0.0
146
0.0
 13
0.0
 23
0.0
 33
0.0
 16
1.0
 26
0.0
 36
0.0
 17
0.0
 27
1.0
 37
0.0
 76
     0
330
23
  0
LAYOUT
  5
22
102
{ACAD_REACTORS
330
1A
102
}
330
1A
100
AcDbPlotSettings
  1

  2
none_device
  4
ANSI_A_(11.00_x_8.50_Inches)
  6

 40
6.35
 41
19.05
 42
6.35000508
 43
19.05000254
 44
279.4
 45
215.9
 46
133.3499974599
 47
88.89999873
 48
0.0
 49
0.0
140
0.0
141
0.0
142
0.5827670914
143
1.0
 70
  1696
 72
     0
 73
     0
 74
     0
  7

 75
     0
147
0.0179189148
148
-1300.4909072572
149
0.0
100
AcDbLayout
  1
Model
 70
     1
 71
     0
 10
0.0
 20
0.0
 11
420.0
 21
297.0
 12
0.0
 22
0.0
 32
0.0
 14
-7.2198654701
 24
-7.2198654701
 34
0.0
 15
7.2198654701
 25
7.2198654701
 35
0.0
146
0.0
 13
0.0
 23
0.0
 33
0.0
 16
1.0
 26
0.0
 36
0.0
 17
0.0
 27
1.0
 37
0.0
 76
     0
330
1F
331
29
  0
MLINESTYLE
  5
18
102
{ACAD_REACTORS
330
17
102
}
330
17
100
AcDbMlineStyle
  2
Standard
 70
     0
  3

 62
   256
 51
90.0
 52
90.0
 71
     2
 49
0.5
 62
   256
  6
BYLAYER
 49
-0.5
 62
   256
  6
BYLAYER
  0
ACDBPLACEHOLDER
  5
F
102
{ACAD_REACTORS
330
E
102
}
330
E
  0
SCALE
  5
48
102
{ACAD_REACTORS
330
47
102
}
330
47
100
AcDbScale
 70
     0
300
1:1
140
1.0
141
1.0
290
     1
  0
SCALE
  5
49
102
{ACAD_REACTORS
330
47
102
}
330
47
100
AcDbScale
 70
     0
300
1:2
140
1.0
141
2.0
290
     0
  0
SCALE
  5
4A
102
{ACAD_REACTORS
330
47
102
}
330
47
100
AcDbScale
 70
     0
300
1:4
140
1.0
141
4.0
290
     0
  0
SCALE
  5
4B
102
{ACAD_REACTORS
330
47
102
}
330
47
100
AcDbScale
 70
     0
300
1:5
140
1.0
141
5.0
290
     0
  0
SCALE
  5
4C
102
{ACAD_REACTORS
330
47
102
}
330
47
100
AcDbScale
 70
     0
300
1:8
140
1.0
141
8.0
290
     0
  0
SCALE
  5
4D
102
{ACAD_REACTORS
330
47
102
}
330
47
100
AcDbScale
 70
     0
300
1:10
140
1.0
141
10.0
290
     0
  0
SCALE
  5
4E
102
{ACAD_REACTORS
330
47
102
}
330
47
100
AcDbScale
 70
     0
300
1:16
140
1.0
141
16.0
290
     0
  0
SCALE
  5
4F
102
{ACAD_REACTORS
330
47
102
}
330
47
100
AcDbScale
 70
     0
300
1:20
140
1.0
141
20.0
290
     0
  0
SCALE
  5
50
102
{ACAD_REACTORS
330
47
102
}
330
47
100
AcDbScale
 70
     0
300
1:30
140
1.0
141
30.0
290
     0
  0
SCALE
  5
51
102
{ACAD_REACTORS
330
47
102
}
330
47
100
AcDbScale
 70
     0
300
1:40
140
1.0
141
40.0
290
     0
  0
SCALE
  5
52
102
{ACAD_REACTORS
330
47
102
}
330
47
100
AcDbScale
 70
     0
300
1:50
140
1.0
141
50.0
290
     0
  0
SCALE
  5
53
102
{ACAD_REACTORS
330
47
102
}
330
47
100
AcDbScale
 70
     0
300
1:100
140
1.0
141
100.0
290
     0
  0
SCALE
  5
54
102
{ACAD_REACTORS
330
47
102
}
330
47
100
AcDbScale
 70
     0
300
2:1
140
2.0
141
1.0
290
     0
  0
SCALE
  5
55
102
{ACAD_REACTORS
330
47
102
}
330
47
100
AcDbScale
 70
     0
300
4:1
140
4.0
141
1.0
290
     0
  0
SCALE
  5
56
102
{ACAD_REACTORS
330
47
102
}
330
47
100
AcDbScale
 70
     0
300
8:1
140
8.0
141
1.0
290
     0
  0
SCALE
  5
57
102
{ACAD_REACTORS
330
47
102
}
330
47
100
AcDbScale
 70
     0
300
10:1
140
10.0
141
1.0
290
     0
  0
SCALE
  5
58
102
{ACAD_REACTORS
330
47
102
}
330
47
100
AcDbScale
 70
     0
300
100:1
140
100.0
141
1.0
290
     0
  0
ENDSEC
  0
EOF
